<?xml version="1.0" encoding="UTF-8" standalone="no"?>
<svg
   xmlns:dc="http://purl.org/dc/elements/1.1/"
   xmlns:cc="http://creativecommons.org/ns#"
   xmlns:rdf="http://www.w3.org/1999/02/22-rdf-syntax-ns#"
   xmlns:svg="http://www.w3.org/2000/svg"
   xmlns="http://www.w3.org/2000/svg"
   xmlns:xlink="http://www.w3.org/1999/xlink"
   xmlns:sodipodi="http://sodipodi.sourceforge.net/DTD/sodipodi-0.dtd"
   xmlns:inkscape="http://www.inkscape.org/namespaces/inkscape"
   width="210mm"
   height="297mm"
   viewBox="0 0 210 297"
   version="1.1"
   id="svg8"
   inkscape:version="0.92.4 (5da689c313, 2019-01-14)"
   sodipodi:docname="rysunek.svg">
  <defs
     id="defs2">
    <inkscape:perspective
       sodipodi:type="inkscape:persp3d"
       inkscape:vp_x="-193.31476 : 216.72066 : 1"
       inkscape:vp_y="0 : 1571.8909 : 0"
       inkscape:vp_z="306.00989 : 151.42497 : 1"
       inkscape:persp3d-origin="30.414503 : 138.91206 : 1"
       id="perspective825" />
  </defs>
  <sodipodi:namedview
     id="base"
     pagecolor="#ffffff"
     bordercolor="#666666"
     borderopacity="1.0"
     inkscape:pageopacity="0.0"
     inkscape:pageshadow="2"
     inkscape:zoom="0.70710678"
     inkscape:cx="889.14712"
     inkscape:cy="563.95587"
     inkscape:document-units="mm"
     inkscape:current-layer="layer1"
     inkscape:document-rotation="0"
     showgrid="false"
     inkscape:window-width="1920"
     inkscape:window-height="1017"
     inkscape:window-x="-8"
     inkscape:window-y="-8"
     inkscape:window-maximized="1"
     inkscape:object-paths="false" />
  <metadata
     id="metadata5">
    <rdf:RDF>
      <cc:Work
         rdf:about="">
        <dc:format>image/svg+xml</dc:format>
        <dc:type
           rdf:resource="http://purl.org/dc/dcmitype/StillImage" />
        <dc:title />
      </cc:Work>
    </rdf:RDF>
  </metadata>
  <g
     inkscape:label="Warstwa 1"
     inkscape:groupmode="layer"
     id="layer1">
    <path
       sodipodi:type="star"
       style="opacity:0.68999999;fill:#c50000;fill-opacity:1;stroke-width:0.264999;paint-order:stroke fill markers"
       id="path863"
       sodipodi:sides="5"
       sodipodi:cx="176.80706"
       sodipodi:cy="115.09649"
       sodipodi:r1="20.45616"
       sodipodi:r2="31.989592"
       sodipodi:arg1="1.8516342"
       sodipodi:arg2="0.72485846"
       inkscape:flatsided="false"
       inkscape:rounded="3.01842e-16"
       inkscape:randomized="0"
       d="m 171.13741,134.75125 29.61684,1.55528 -44.392,-20.52854 7.67294,28.6479 5.80592,-48.56297 -24.87469,16.15009 47.98025,-9.48502 -23.04635,-18.666593 23.8475,42.700903 10.63127,-27.686681 z"
       inkscape:transform-center-x="0.46448529"
       inkscape:transform-center-y="-2.4999395" />
    <path
       sodipodi:type="star"
       style="opacity:0.68999999;fill:#003c2d;fill-opacity:1;stroke-width:0.264999;paint-order:stroke fill markers"
       id="path867"
       sodipodi:sides="5"
       sodipodi:cx="46.498098"
       sodipodi:cy="41.717731"
       sodipodi:r1="40.381649"
       sodipodi:r2="11.026221"
       sodipodi:arg1="0.03697843"
       sodipodi:arg2="0.70399872"
       inkscape:flatsided="false"
       inkscape:rounded="-0.75"
       inkscape:randomized="0"
       d="M 86.85214,43.210641 C 88.692282,18.947399 39.882489,67.998272 54.902944,48.854684 69.631564,30.08304 34.363382,86.194044 57.54834,80.558042 81.19269,74.810366 19.459482,43.547049 42.307692,51.916656 64.71198,60.123649 0.44877652,43.920868 12.973479,64.229454 25.746349,84.940437 36.402921,16.567771 35.503436,40.884061 34.621428,64.727905 30.172766,-1.3969676 14.7285,16.790431 -1.0217819,35.338198 67.297549,24.344884 43.893427,31.00357 20.944029,37.532883 82.457808,12.868245 60.388023,3.8000903 37.880944,-5.4477429 69.448041,56.130682 55.882982,35.929686 42.581482,16.12118 85.04775,67.002467 86.85214,43.210641 Z"
       inkscape:transform-center-x="1.2557813"
       inkscape:transform-center-y="-0.11374532" />
    <path
       sodipodi:type="star"
       style="opacity:0.68999999;fill:#2e0047;fill-opacity:1;stroke-width:0.264999;paint-order:stroke fill markers"
       id="path869"
       sodipodi:sides="10"
       sodipodi:cx="89.71478"
       sodipodi:cy="117.21653"
       sodipodi:r1="29.752272"
       sodipodi:r2="29.752272"
       sodipodi:arg1="-0.47501075"
       sodipodi:arg2="0.80473981"
       inkscape:flatsided="false"
       inkscape:rounded="0.37"
       inkscape:randomized="0"
       d="m 116.17312,103.60939 c -6.19645,11.59409 -7.93976,22.07228 -5.83112,35.04812 1.13002,6.95384 15.11473,-19.97241 8.7761,-16.89757 -11.82786,5.73764 -19.397153,13.18998 -25.318245,24.92708 -3.173151,6.28999 23.967565,-7.2738 17.032165,-8.51196 -12.941444,-2.3104 -23.445506,-0.73044 -35.134664,5.28474 -6.264295,3.22358 23.665601,8.20315 18.782514,3.12494 -9.111829,-9.47594 -18.538469,-14.37186 -31.530833,-16.37619 -6.962691,-1.07414 14.324182,20.54678 13.358583,13.56821 -1.801806,-13.022 -6.550368,-22.52372 -15.883297,-31.78198 -5.001576,-4.96156 -0.488587,25.04224 2.832127,18.82889 6.196446,-11.59409 7.939751,-22.07228 5.83112,-35.048123 -1.130029,-6.953838 -15.114734,19.972413 -8.776105,16.897573 11.827865,-5.73764 19.397154,-13.18998 25.318245,-24.927081 3.173151,-6.289988 -23.967564,7.273802 -17.032163,8.51196 12.941442,2.310398 23.445504,0.730441 35.134663,-5.284743 6.26429,-3.223575 -23.665601,-8.203151 -18.782514,-3.124934 9.111828,9.475941 18.538464,14.371858 31.530834,16.376188 6.96269,1.07414 -14.32418,-20.546777 -13.35858,-13.568207 1.8018,13.021997 6.55036,22.523717 15.88329,31.781977 5.00158,4.96156 0.48859,-25.042239 -2.83212,-18.82889 z"
       inkscape:transform-center-x="1.6025825"
       inkscape:transform-center-y="0.29563344" />
    <path
       sodipodi:type="star"
       style="opacity:1;fill:#ff3800;fill-opacity:0.69019608;stroke:none;stroke-width:2.46499991;stroke-linejoin:bevel;stroke-miterlimit:4;stroke-dasharray:none;stroke-opacity:1;paint-order:stroke fill markers"
       id="path815"
       sodipodi:sides="9"
       sodipodi:cx="137.71902"
       sodipodi:cy="41.929509"
       sodipodi:r1="30.386166"
       sodipodi:r2="4.6663542"
       sodipodi:arg1="1.0693923"
       sodipodi:arg2="1.4184582"
       inkscape:flatsided="false"
       inkscape:rounded="3.94"
       inkscape:randomized="0"
       d="M 152.32435,68.575397 C 62.320524,117.90892 239.87613,30.966596 138.42714,46.541821 36.978151,62.117047 232.43762,91.791247 131.77971,71.729568 31.1218,51.667889 223.02273,99.196754 135.29674,45.917914 47.570739,-7.3609254 178.22717,141.00975 114.01414,60.93996 49.801103,-19.129834 166.25478,140.63093 133.29975,43.427787 100.34471,-53.775356 105.06251,143.86751 107.34034,41.25515 109.61818,-61.357212 96.134631,135.88162 133.37059,40.236599 170.60654,-55.408417 47.178196,99.027346 114.88107,21.88588 182.58395,-55.255586 45.47228,87.171065 135.47611,37.837542 225.47994,-11.495981 31.658943,27.470466 133.10793,11.895246 c 101.449,-15.5752206 -95.134724,5.396241 5.52319,25.457915 100.6579,20.061674 -72.864738,-74.674028 14.86126,-21.395184 87.72599,53.278844 -76.34607,-57.017664 -12.13303,23.052127 64.21303,80.069786 -7.81809,-104.040172 25.13694,-6.837028 32.95503,97.203144 -21.83423,-92.75237 -24.11206,9.859992 -2.27783,102.612362 60.88673,-84.724764 23.65077,10.92025 -37.23596,95.645012 42.89409,-85.087212 -24.80879,-7.945742 -67.702872,77.141474 101.10197,-25.765697 11.09814,23.567821 z"
       inkscape:transform-center-x="1.6802204e-06"
       inkscape:transform-center-y="-1.4958264e-06" />
    <path
       sodipodi:type="spiral"
       style="fill:none;fill-rule:evenodd;stroke:#000000;stroke-width:0.26458332"
       id="path857"
       sodipodi:cx="48.515045"
       sodipodi:cy="180.68648"
       sodipodi:expansion="1"
       sodipodi:revolution="2.3099999"
       sodipodi:radius="38.158749"
       sodipodi:argument="-250.34462"
       sodipodi:t0="0.0099999998"
       d="m 48.678566,181.03125 c 0.758485,2.46308 -2.982751,2.44884 -4.239631,1.58845 -3.398007,-2.32609 -2.262579,-7.34259 0.373181,-9.74067 4.589897,-4.176 11.760102,-2.28428 15.241708,2.33481 5.050668,6.7008 2.327135,16.23862 -4.296442,20.74275 -8.771037,5.96444 -20.740454,2.38045 -26.243784,-6.25807 -6.896573,-10.82548 -2.43948,-25.25386 8.219702,-31.74482 12.872276,-7.83865 29.773888,-2.50189 37.245862,10.18133 8.786659,14.91482 2.566437,34.29809 -12.142963,42.7469 -16.954763,9.7385 -38.825096,2.63242 -48.247939,-14.10459 -1.438812,-2.55565 -2.575664,-5.27985 -3.385573,-8.09849" />
    <text
       xml:space="preserve"
       style="font-style:normal;font-weight:normal;font-size:10.58333302px;line-height:1.25;font-family:sans-serif;letter-spacing:0px;word-spacing:0px;fill:#000000;fill-opacity:1;stroke:none;stroke-width:0.26458332"
       id="text861"><textPath
         xlink:href="#path857"
         id="textPath869"><tspan
   style="stroke-width:0.26458332"
   id="tspan859">Ala ma kota</tspan><tspan
   id="tspan863"
   style="stroke-width:0.26458332" /></textPath></text>
    <text
       xml:space="preserve"
       style="font-style:normal;font-weight:normal;font-size:10.58333302px;line-height:1.25;font-family:sans-serif;letter-spacing:0px;word-spacing:0px;fill:#000000;fill-opacity:1;stroke:none;stroke-width:0.26458332"
       x="113.37573"
       y="173.33438"
       id="text867"><tspan
         sodipodi:role="line"
         id="tspan865"
         x="113.37573"
         y="182.69815"
         style="stroke-width:0.26458332" /></text>
    <path
       style="fill:none;stroke:#000000;stroke-width:0.26458332px;stroke-linecap:butt;stroke-linejoin:miter;stroke-opacity:1"
       d="m 5.97535,269.94393 c 0.07028,0.24598 0.140495,0.48805 0.21063,0.72628 0.07014,0.23823 0.140192,0.47261 0.210153,0.7032 0.06996,0.2306 0.139827,0.45741 0.209583,0.6805 0.06976,0.22309 0.139402,0.44246 0.208923,0.65817 0.06952,0.21571 0.138917,0.42776 0.208173,0.63621 0.06925,0.20845 0.13837,0.4133 0.20733,0.61462 0.06896,0.20132 0.137764,0.3991 0.206398,0.59341 0.06863,0.19431 0.137097,0.38514 0.205374,0.57257 0.06828,0.18742 0.13637,0.37143 0.20426,0.5521 0.06789,0.18066 0.135581,0.35798 0.203056,0.532 0.06747,0.17403 0.134732,0.34477 0.201759,0.51228 0.06703,0.16752 0.133822,0.3318 0.200372,0.49293 0.06655,0.16112 0.132853,0.31909 0.198895,0.47395 0.06604,0.15486 0.131822,0.30662 0.197326,0.45534 0.0655,0.14872 0.130731,0.2944 0.195667,0.43711 0.06494,0.1427 0.129579,0.28243 0.193917,0.41925 0.06434,0.13681 0.128367,0.27071 0.192075,0.40175 0.06371,0.13105 0.127095,0.25924 0.190145,0.38464 0.06305,0.12541 0.125761,0.24802 0.188121,0.3679 0.06236,0.11988 0.124368,0.23704 0.186008,0.35153 0.06164,0.11448 0.122913,0.2263 0.183803,0.33552 0.06089,0.10922 0.121399,0.21583 0.181509,0.3199 0.06011,0.10407 0.119823,0.2056 0.179122,0.30464 0.0593,0.099 0.118187,0.19562 0.176646,0.28976 0.05846,0.0941 0.11649,0.18588 0.174078,0.27525 0.05759,0.0894 0.114733,0.1764 0.171419,0.26112 0.05669,0.0847 0.112915,0.16715 0.16867,0.24735 0.05576,0.0802 0.111037,0.15816 0.16583,0.23395 0.05479,0.0758 0.109098,0.14942 0.162899,0.22094 0.0538,0.0715 0.107098,0.14093 0.159877,0.20829 0.05278,0.0674 0.105038,0.13268 0.156764,0.19601 0.05173,0.0633 0.102918,0.12469 0.153561,0.18411 0.05064,0.0594 0.100737,0.11694 0.150266,0.17258 0.04953,0.0556 0.0985,0.10944 0.146882,0.16143 0.04839,0.052 0.09619,0.10218 0.143405,0.15064 0.04721,0.0485 0.09383,0.0952 0.139838,0.14022 0.04601,0.0451 0.09141,0.0884 0.136181,0.13018 0.04477,0.0418 0.08892,0.0819 0.132431,0.12052 0.04351,0.0386 0.08638,0.0756 0.128593,0.11122 0.04221,0.0356 0.08377,0.0696 0.124662,0.1023 0.04089,0.0327 0.08111,0.0639 0.120642,0.0937 0.03953,0.0299 0.07838,0.0584 0.116529,0.0856 0.03815,0.0272 0.07559,0.0531 0.112327,0.0778 0.03673,0.0247 0.07275,0.0481 0.108033,0.0703 0.03528,0.0222 0.06984,0.0433 0.103648,0.0633 0.03381,0.02 0.06687,0.0388 0.09917,0.0566 0.0323,0.0178 0.06384,0.0345 0.09461,0.0503 0.03076,0.0157 0.06075,0.0305 0.08995,0.0443 0.0292,0.0138 0.0576,0.0267 0.0852,0.0387 0.0276,0.012 0.05439,0.0232 0.08036,0.0335 0.02597,0.0104 0.05112,0.0199 0.07543,0.0287 0.02431,0.009 0.04779,0.0169 0.07041,0.0243 0.02263,0.007 0.0444,0.0141 0.0653,0.0202 0.02091,0.006 0.04095,0.0116 0.0601,0.0165 0.01916,0.005 0.03743,0.009 0.05481,0.0131 0.01738,0.004 0.03386,0.007 0.04942,0.0102 0.01557,0.003 0.03022,0.005 0.04395,0.008 0.01373,0.002 0.02653,0.004 0.03839,0.005 0.01186,10e-4 0.02277,0.003 0.03273,0.004 0.01,9e-4 0.01896,0.002 0.02698,0.002 0.008,4.8e-4 0.01508,7.7e-4 0.02114,9.4e-4 0.0061,1.7e-4 0.01114,2.2e-4 0.01522,2.1e-4 0.0041,-10e-6 0.0071,-8e-5 0.0092,-1.5e-4 0.0021,-6e-5 0.0031,-1.3e-4 0.0031,-1.3e-4 l 1.126546,0.031 1.126546,0.031 1.126546,0.031 1.126546,0.031 1.126546,0.031 1.126546,0.031 1.126547,0.031 1.126546,0.031 1.126546,0.031 1.126546,0.031 1.126546,0.031 1.126546,0.031 1.126547,0.031 1.126546,0.031 1.126546,0.031 1.126546,0.031 1.126546,0.031 1.126546,0.031 1.126546,0.031 1.126547,0.031 1.126546,0.031 1.126546,0.031 1.126546,0.031 1.126546,0.031 1.126546,0.031 1.126547,0.031 1.126546,0.031 1.126544,0.031 1.12655,0.031 1.12654,0.031 1.12655,0.031 1.12655,0.031 1.12654,0.031 1.12655,0.031 1.12654,0.031 1.12655,0.031 1.12655,0.031 1.12654,0.031 1.12655,0.031 1.12655,0.031 1.12654,0.031 1.12655,0.031 1.12654,0.031 1.12655,0.031 1.12655,0.031 1.12654,0.031 1.12655,0.031 1.12655,0.031 1.12654,0.031 1.12655,0.031 1.12654,0.031 1.12655,0.031 1.12655,0.031 1.12654,0.031 1.12655,0.031 1.12654,0.031 1.12655,0.031 1.12655,0.031 1.12654,0.031 1.12655,0.031 1.12655,0.031 1.12654,0.031 1.12655,0.031 1.12654,0.031 c 0,0 0.003,-6.4e-4 0.008,-0.002 0.005,-10e-4 0.0132,-0.003 0.0236,-0.006 0.0104,-0.003 0.0233,-0.006 0.0386,-0.01 0.0153,-0.004 0.0329,-0.009 0.0529,-0.0142 0.0199,-0.005 0.0421,-0.0116 0.0665,-0.0185 0.0244,-0.007 0.0509,-0.0145 0.0795,-0.0229 0.0286,-0.008 0.0592,-0.0175 0.0918,-0.0274 0.0326,-0.01 0.0671,-0.0205 0.10341,-0.032 0.0363,-0.0114 0.0745,-0.0236 0.11438,-0.0367 0.0399,-0.013 0.0815,-0.0268 0.12469,-0.0415 0.0432,-0.0146 0.088,-0.0301 0.13434,-0.0464 0.0463,-0.0163 0.0941,-0.0334 0.14332,-0.0514 0.0492,-0.018 0.0998,-0.0368 0.15164,-0.0565 0.0519,-0.0197 0.105,-0.0403 0.1593,-0.0617 0.0543,-0.0215 0.10977,-0.0438 0.1663,-0.067 0.0565,-0.0232 0.1141,-0.0474 0.17262,-0.0724 0.0585,-0.0251 0.11799,-0.051 0.1783,-0.078 0.0603,-0.0269 0.12144,-0.0548 0.1833,-0.0836 0.0619,-0.0288 0.12444,-0.0586 0.18764,-0.0893 0.0632,-0.0307 0.127,-0.0625 0.19132,-0.0952 0.0643,-0.0327 0.12913,-0.0664 0.19433,-0.10109 0.0652,-0.0347 0.13081,-0.0704 0.19669,-0.10712 0.0659,-0.0367 0.13205,-0.0745 0.19838,-0.11327 0.0663,-0.0388 0.13284,-0.0786 0.19941,-0.11951 0.0666,-0.0409 0.13319,-0.0828 0.19976,-0.12586 0.0666,-0.043 0.13311,-0.0871 0.19947,-0.13231 0.0664,-0.0452 0.13257,-0.0915 0.19851,-0.13886 0.0659,-0.0474 0.1316,-0.0959 0.19688,-0.14551 0.0653,-0.0496 0.13018,-0.10038 0.19459,-0.15227 0.0644,-0.0519 0.12832,-0.10494 0.19164,-0.15914 0.0633,-0.0542 0.12602,-0.10956 0.18802,-0.1661 0.062,-0.0565 0.12328,-0.11425 0.18374,-0.17316 0.0605,-0.0589 0.1201,-0.11902 0.17881,-0.18034 0.0587,-0.0613 0.11647,-0.12385 0.1732,-0.18761 0.0567,-0.0638 0.1124,-0.12874 0.16693,-0.19498 0.0545,-0.0662 0.10789,-0.13372 0.16,-0.20246 0.0521,-0.0687 0.10294,-0.13876 0.1524,-0.21005 0.0495,-0.0713 0.0976,-0.14386 0.14415,-0.21773 0.0466,-0.0739 0.0917,-0.14904 0.13523,-0.22552 0.0435,-0.0765 0.0854,-0.15428 0.12564,-0.23341 0.0402,-0.0791 0.0787,-0.15959 0.1154,-0.2414 0.0367,-0.0818 0.0716,-0.16497 0.10449,-0.2495 0.0329,-0.0845 0.064,-0.17042 0.0929,-0.2577 0.029,-0.0873 0.0559,-0.17594 0.0807,-0.266 0.0248,-0.0901 0.0474,-0.18152 0.0678,-0.27441 0.0204,-0.0929 0.0385,-0.18718 0.0542,-0.28291 0.0157,-0.0957 0.0291,-0.19291 0.04,-0.29153 0.0109,-0.0986 0.0193,-0.1987 0.0251,-0.30024 0.006,-0.10154 0.009,-0.20456 0.01,-0.30906 5.2e-4,-0.1045 -0.002,-0.21049 -0.007,-0.31798 -0.005,-0.10749 -0.0128,-0.21648 -0.0235,-0.327 -0.0107,-0.11051 -0.0244,-0.22255 -0.0411,-0.33613 -0.0167,-0.11357 -0.0364,-0.22869 -0.0593,-0.34535 -0.0229,-0.11667 -0.0489,-0.2349 -0.0781,-0.35469 -0.0293,-0.1198 -0.0618,-0.24117 -0.0977,-0.36413 -0.0359,-0.12296 -0.0751,-0.2475 -0.11787,-0.37366 -0.0427,-0.12615 -0.0889,-0.25392 -0.13873,-0.3833 -0.0498,-0.12939 -0.10317,-0.2604 -0.16025,-0.39305 -0.0571,-0.13265 -0.11785,-0.26694 -0.18243,-0.40289 -0.0646,-0.13595 -0.13297,-0.27356 -0.20527,-0.41285 -0.0723,-0.13928 -0.14854,-0.28024 -0.22879,-0.42289 -0.0802,-0.14266 -0.16453,-0.287 -0.25296,-0.43305 -0.0884,-0.14606 -0.18098,-0.29382 -0.27779,-0.44332 -0.0968,-0.14949 -0.19787,-0.3007 -0.30329,-0.45367 -0.10542,-0.15296 -0.21219,-0.30589 -0.32026,-0.45875 -0.10807,-0.15286 -0.21742,-0.30565 -0.32801,-0.45834 -0.11058,-0.15268 -0.22238,-0.30526 -0.33535,-0.4577 -0.11296,-0.15244 -0.22708,-0.30473 -0.3423,-0.45685 -0.11521,-0.15211 -0.23152,-0.30404 -0.34885,-0.45576 -0.11733,-0.15172 -0.23569,-0.30322 -0.35501,-0.45447 -0.11932,-0.15125 -0.2396,-0.30224 -0.36077,-0.45295 -0.12117,-0.1507 -0.24323,-0.30112 -0.36613,-0.45121 -0.12289,-0.15008 -0.24661,-0.29984 -0.37109,-0.44924 -0.12449,-0.1494 0.9409,-14.58593 0.81496,-14.73456 -0.12594,-0.14864 -1.4432,13.99063 -1.57047,13.84284 -0.12726,-0.1478 -0.25515,-0.29515 -0.38361,-0.44203 -0.12846,-0.14689 -0.25747,-0.29329 -0.38699,-0.43919 -0.12952,-0.1459 -0.25953,-0.29128 -0.38998,-0.43612 -0.13044,-0.14484 3.31056,-2.67038 3.17932,-2.81408 -0.13124,-0.14371 -3.83472,2.09443 -3.96663,1.95193 -0.1319,-0.1425 -0.2641,-0.28438 -0.39654,-0.42559 -0.13244,-0.14122 3.96823,-3.19219 3.83539,-3.33205 -0.13283,-0.13987 -4.49916,2.63138 -4.63227,2.49294 -0.1331,-0.13844 3.70245,-5.30323 3.56921,-5.44016 -0.13323,-0.13694 -4.23525,4.75399 -4.36849,4.61863 -0.13324,-0.13536 0.5273,-10.85325 0.39419,-10.98696 -0.13311,-0.13371 -1.05987,10.31675 -1.19271,10.18477 -0.13285,-0.13199 -0.26554,-0.2631 -0.39799,-0.39329 -0.13245,-0.1302 -0.26467,-6.34489 -0.3966,-6.47321 -0.13193,-0.12833 -0.26356,5.82972 -0.39483,5.70334 -0.13127,-0.12637 -0.26217,-0.25176 -0.39265,-0.37613 -0.13048,-0.12436 -0.92199,-12.68311 -1.05154,-12.80538 -0.12955,-0.12227 0.40285,12.19194 0.27435,12.07183 -0.1285,-0.12011 -0.25644,-0.23911 -0.38375,-0.35698 -0.12731,-0.11787 -0.254,-0.2346 -0.37999,-0.35016 -0.12599,-0.11555 -0.25129,-0.22994 -0.37583,-0.34311 -0.12454,-0.11317 4.91106,-7.89805 -0.37128,-0.33584 -0.0948,0.13564 -0.24509,-0.22018 -0.36633,-0.32836 -0.12124,-0.10818 0.28758,-19.26507 0.16819,-19.37064 -0.11939,-0.10558 -0.76699,18.84017 -0.8844,18.73728 -0.11741,-0.10289 -0.2338,-0.20443 -0.3491,-0.30457 -0.11529,-0.10014 -0.2295,-0.19888 -0.34255,-0.29619 -0.11306,-0.0973 -0.22495,-0.19319 -0.33563,-0.2876 -0.11067,-0.0944 -0.22013,-0.18735 -0.32829,-0.27879 -0.10817,-0.0914 5.73809,-8.11886 5.63256,-8.20725 -0.10552,-0.0884 -6.16282,7.76227 -6.26557,7.67701 -0.10275,-0.0853 -0.20408,-0.16895 -0.30392,-0.25102 -0.0998,-0.0821 -0.1982,-0.16252 -0.29501,-0.24132 -0.0968,-0.0788 -0.19205,-0.15594 -0.28569,-0.23139 -0.0936,-0.0755 1.66643,-2.39818 1.5761,-2.47022 -0.0903,-0.072 -2.03105,2.10661 -2.11795,2.03806 -0.0869,-0.0686 -0.17204,-0.13533 -0.25537,-0.20031 -0.0833,-0.065 2.48099,-7.5365 2.40136,-7.59784 -0.0796,-0.0614 -2.8032,7.28747 -2.879,7.22984 -0.0758,-0.0576 -0.14964,-0.11339 -0.22147,-0.16724 -0.0718,-0.0538 -0.14166,-0.10579 -0.20939,-0.15577 -0.0677,-0.05 -0.13339,-0.098 -0.1969,-0.14409 -0.0635,-0.0461 -0.12487,-0.0901 -0.18402,-0.13218 -0.0591,-0.042 -0.11608,-0.0821 -0.17073,-0.12004 -0.0547,-0.038 -0.10703,-0.0739 -0.15706,-0.1077 -0.05,-0.0338 4.40022,-11.178 4.35493,-11.2076 -0.0453,-0.0296 -4.58602,11.0555 -4.62643,11.0302 -0.0404,-0.0253 -0.60747,-6.3984 -0.64282,-6.4193 -0.0354,-0.0209 0.46097,6.3104 0.43077,6.2939 -0.0302,-0.0165 -0.0578,-0.0307 -0.0827,-0.0426 -0.0249,-0.0119 -0.0472,-0.0216 -0.0667,-0.029 -0.0195,-0.007 -0.0363,-0.0124 -0.0502,-0.0151 -0.014,-0.003 0.50407,-3.70717 0.49577,-3.70511 -0.008,0.002 -0.54957,3.70498 -0.56567,3.70017 -0.016,-0.004 -0.036,-0.012 -0.0597,-0.0227 -0.0238,-0.0106 -0.0513,-0.0243 -0.0827,-0.0408 -0.0314,-0.0165 -0.0666,-0.0359 -0.10553,-0.058 -0.0389,-0.0221 -0.0817,-0.0469 -0.1281,-0.0742 -0.0464,-0.0273 -0.0966,-0.0572 -0.15046,-0.0895 -0.0539,-0.0323 -0.11141,-0.067 -0.17261,-0.10392 -0.0612,-0.0369 -0.12605,-0.0761 -0.19452,-0.1174 -0.0685,-0.0413 5.66524,-5.50186 -0.21623,-0.12995 -0.0651,0.0595 -0.15492,-4.06125 -0.23772,-4.11032 -0.0828,-0.049 -0.16913,3.86895 -0.25898,3.81648 -0.0898,-0.0524 -0.18321,-0.1065 -0.28004,-0.16203 -0.0968,-0.0555 -0.19713,-0.11255 -0.30086,-0.17088 -0.10374,-0.0583 -3.12133,-7.39401 -3.2319,-7.45483 -0.11057,-0.0608 2.68588,7.15325 2.56854,7.09027 -0.11733,-0.063 -0.23803,-0.12699 -0.36205,-0.19184 -0.12402,-0.0649 -0.25137,-0.13057 -0.38202,-0.19698 -0.13064,-0.0664 -0.26457,-0.13352 -0.40175,-0.20118 -0.13719,-0.0677 1.44217,-7.5442 1.29851,-7.6128 -0.14366,-0.0686 -2.01032,7.27074 -2.16038,7.20151 -0.15005,-0.0692 -0.30329,-0.1387 -0.45967,-0.20825 -0.15638,-0.0695 8.41534,-7.9444 8.25271,-8.01396 -0.16264,-0.0696 -9.05963,7.66615 -9.22845,7.59688 -0.16882,-0.0693 -0.34071,-0.13832 -0.51563,-0.20698 -0.17492,-0.0687 0.97003,-10.4557 0.78907,-10.52346 -0.18096,-0.0677 -1.68784,10.18379 -1.87476,10.11726 -0.18692,-0.0665 -0.37681,-0.13237 -0.56962,-0.19737 -0.19282,-0.065 -0.38856,-0.12916 -0.58719,-0.19231 -0.19863,-0.0632 -0.40015,-4.49095 -0.60453,-4.55196 -0.20437,-0.061 -0.4116,4.24476 -0.62165,4.18621 -0.21005,-0.0585 -0.42292,-0.1158 -0.63857,-0.17159 -0.21564,-0.0558 1.41801,-14.13303 1.19683,-14.18574 -0.22117,-0.0527 -2.29717,13.91912 -2.5238,13.86979 -0.22663,-0.0493 -0.45597,-0.0969 -0.68798,-0.14251 -0.23201,-0.0456 -1.26045,-4.71951 -1.49777,-4.76118 -0.23732,-0.0416 0.31648,4.54901 0.0739,4.5117 -0.24256,-0.0373 -0.48771,-0.0724 -0.73543,-0.10511 -0.24772,-0.0327 -0.6303,-2.44425 -0.88311,-2.47205 -0.25281,-0.0278 -0.37585,2.32825 -0.63368,2.30575 -0.25783,-0.0225 -4.09003,-12.7424 -4.35281,-12.7594 -0.26277,-0.017 3.04388,12.6689 2.77623,12.6577 -0.26765,-0.0111 4.04596,-5.07069 3.77351,-5.07559 -0.27245,-0.005 -5.13095,5.04439 -5.40812,5.04639 -0.27718,0.002 -0.78364,0.29117 -0.83853,0.0146 -0.86194,-4.34283 -2.34564,-13.32751 -0.85238,0.0354 0.0319,0.28506 -16.234611,-8.15764 -16.525533,-8.13486 -0.290922,0.0228 15.075433,8.24133 14.780073,8.27182 -0.29536,0.0305 -0.59292,0.0649 -0.89264,0.10339 -0.29973,0.0385 -0.33703,-8.51786 -0.64105,-8.47105 -0.30401,0.0468 -0.87474,8.69686 -1.18297,8.75231 -0.30823,0.0555 -5.910227,-3.85344 -6.222607,-3.78904 -0.31238,0.0644 4.664853,4.10211 4.348399,4.17576 -0.316454,0.0737 -0.634926,0.15202 -0.95538,0.23523 -0.320455,0.0832 -3.685599,-12.79329 -4.009982,-12.7002 -0.324383,0.0931 1.97124,13.59046 2.063759,13.25903 5.022091,-17.99059 7.578351,-27.64347 -0.990408,0.32545 -0.102808,0.33557 -0.665915,0.23283 -1.001646,0.35737 -0.335732,0.12455 -2.657675,-8.21209 -2.997044,-8.07644 -0.339368,0.13566 1.303837,8.74361 0.960903,8.89068 -0.342933,0.14707 -9.29371,-10.36413 -9.640136,-10.20534 -0.346426,0.15879 7.911499,10.98758 7.561654,11.1584 -0.349846,0.17083 -0.701383,0.34774 -1.054575,0.53091 -0.353192,0.18316 -0.956855,0.96059 -1.064507,0.56839 -5.594949,-20.38394 -0.714551,0.39803 -1.074219,0.6068 -0.359668,0.20878 -8.387247,-11.09487 -8.736972,-10.89212 -0.349724,0.20274 6.630161,12.50137 6.638488,12.10868 0.406693,-19.17878 -0.674966,0.39066 -1.005215,0.58161 -0.330249,0.19095 -6.081269,-5.23366 -0.976414,0.56419 0.244733,0.27795 -0.636702,0.36751 -0.948025,0.54702 -0.311322,0.17951 -2.301779,-5.25645 -2.603844,-5.08253 -0.302065,0.17392 1.084262,5.95773 0.791318,6.12615 -0.292945,0.16842 -0.581364,0.33411 -0.865326,0.49712 -0.283962,0.16301 -4.772962,-10.15364 -5.048079,-9.99596 -0.275116,0.15768 3.663651,10.78969 3.397243,10.94213 -0.266408,0.15245 -6.746205,0.0377 -7.004042,0.18501 -0.257837,0.14729 5.706285,0.55661 5.456882,0.69884 -0.249404,0.14223 -0.494624,0.28196 -0.735731,0.41921 -0.241107,0.13726 0.05107,-8.4592 -0.181881,-8.32683 -0.232948,0.13237 -0.991017,8.99357 -1.215943,9.12114 -0.224925,0.12758 -0.842749,-2.78994 -1.05979,-2.66708 -0.217041,0.12286 -0.0333,3.2861 -0.242593,3.40434 -0.209294,0.11823 -0.282456,-6.3804 -0.484139,-6.2667 -0.201684,0.11371 -0.531888,6.83974 -0.726099,6.949 -0.19421,0.10925 -5.147219,-3.09099 -5.334094,-2.98609 -0.186875,0.1049 4.392384,3.51492 4.212708,3.61555 -0.179677,0.10062 -0.355789,0.19913 -0.528404,0.29557 -0.172615,0.0964 -0.341735,0.19081 -0.507426,0.28315 -0.165692,0.0923 0.06892,-2.72776 -0.08999,-2.63943 -0.158905,0.0883 -0.711326,3.08511 -0.863582,3.16952 -0.152255,0.0844 -0.301221,0.16689 -0.446964,0.24747 -0.145744,0.0806 -0.836351,-3.24306 -0.427635,0.23611 0.01857,0.15804 -0.275585,-3.55235 -0.408716,-3.47917 -0.133132,0.0732 -0.263179,3.84872 -0.39021,3.91833 -0.127031,0.0696 -0.251046,0.13745 -0.372114,0.20358 -0.121069,0.0661 -0.503773,-1.06009 -0.619015,-0.99736 -0.115243,0.0627 0.03698,1.31442 -0.07258,1.37385 -0.109554,0.0594 -0.216298,0.11722 -0.320301,0.17343 -0.104002,0.0562 -0.734431,-2.00583 -0.83302,-1.95275 -0.09859,0.0531 0.334662,2.22128 0.24135,2.27132 -0.09331,0.05 -0.184021,0.0986 -0.272194,0.14565 -0.08817,0.0471 -0.17381,0.0927 -0.256981,0.13693 -0.08317,0.0442 -0.163875,0.087 -0.242181,0.12845 -0.07831,0.0414 -0.154214,0.0815 -0.227792,0.12025 -0.07358,0.0387 -0.144827,0.0762 -0.213815,0.11231 -0.06899,0.0361 -0.135715,0.071 -0.20025,0.10463 -0.06453,0.0336 -0.126878,0.066 -0.187097,0.0972 -0.06022,0.0312 -0.118315,0.0612 -0.174356,0.0901 -0.05604,0.0289 -0.110026,0.0566 -0.162026,0.0832 -0.052,0.0266 -0.102012,0.0521 -0.150107,0.0765 -0.0481,0.0244 -0.09427,0.0478 -0.138602,0.0702 -0.04433,0.0224 -0.08681,0.0437 -0.127508,0.0641 -0.0407,0.0204 -0.07962,0.0398 -0.116825,0.0583 -0.03721,0.0185 -0.0727,0.036 -0.106554,0.0527 -0.03385,0.0167 -0.06606,0.0324 -0.0967,0.0474 -0.03063,0.0149 -0.05969,0.029 -0.08725,0.0423 -0.02755,0.0133 -0.0536,0.0258 -0.07821,0.0375 -0.02461,0.0118 -0.04778,0.0227 -0.06959,0.033 -0.02181,0.0103 -0.04224,0.0199 -0.06138,0.0288 -0.01914,0.009 -0.03697,0.0172 -0.05358,0.0248 -0.01661,0.008 -0.03198,0.0146 -0.04619,0.0211 -0.01421,0.006 -0.02726,0.0123 -0.03921,0.0176 -0.01195,0.005 -0.02281,0.0101 -0.03265,0.0144 -0.0098,0.004 -0.01864,0.008 -0.0265,0.0115 -0.0079,0.003 -0.01475,0.006 -0.02076,0.009 -0.006,0.003 -0.01113,0.005 -0.01543,0.006 -0.0043,0.002 -0.0078,0.003 -0.01051,0.004 -0.0027,10e-4 -0.0047,0.002 -0.006,0.002 -0.0013,5e-4 -0.0019,7.2e-4 -0.0019,7.2e-4 z"
       id="path887"
       inkscape:connector-curvature="0"
       sodipodi:nodetypes="cssssssssssssssssssssssssssssssssssssssssssssssssssssssssssssssscccccccccccccccccccccccccccccccccccccccccccccccccccccccccccccccccssssssssssssssssssssssssssssssssssssssssssssssssssssssssssssssscssssssssssssssssssssssssssssssssssssssssssssssssssssssssssssssssssssssssssssssssssssssssssssssssssssssssssssssssssssssssssssssssssssssssssssssssssssssssssssssssssssssssssssssssssssssssssssssscc" />
    <path
       style="opacity:1;fill:#a05a2c;fill-opacity:1;stroke:none;stroke-width:0.61624998;stroke-linejoin:bevel;stroke-miterlimit:4;stroke-dasharray:none;stroke-opacity:1;paint-order:stroke fill markers"
       d="m 66.939489,286.70424 c -10.786731,-0.30115 -26.9197,-0.74477 -35.851041,-0.98589 -8.931341,-0.24109 -16.389995,-0.46828 -16.574788,-0.50485 -0.542563,-0.10745 -1.120161,-0.49244 -1.879899,-1.25306 -1.112086,-1.11337 -1.9587,-2.4154 -3.1048962,-4.77511 -1.0282317,-2.11685 -1.9944371,-4.65623 -2.8767855,-7.56075 -0.2431388,-0.80036 -0.4543081,-1.49242 -0.469265,-1.53789 -0.014949,-0.0455 0.00704,-0.0827 0.048866,-0.0827 0.1528683,0 3.0388163,-1.54906 3.1004272,-1.66419 0.041063,-0.0767 0.038679,-0.27427 -0.00675,-0.55859 -0.03865,-0.24193 -0.058462,-0.45169 -0.044027,-0.46612 0.014446,-0.0145 0.09089,0.15104 0.1698969,0.36773 0.1588214,0.43558 0.2622365,0.49892 0.5697616,0.34896 0.270878,-0.1321 0.295318,-0.18468 0.297731,-0.64055 l 0.0021,-0.39688 0.14953,0.26402 c 0.08224,0.14522 0.203168,0.27436 0.268726,0.28698 0.168733,0.0325 0.498711,-0.11685 0.575599,-0.26052 0.03571,-0.0667 0.111204,-0.6949 0.167761,-1.39594 0.05656,-0.70104 0.11134,-1.28312 0.121738,-1.29352 0.0104,-0.0104 0.03833,0.24235 0.06207,0.56165 0.104399,1.40431 0.129005,1.60979 0.205242,1.71405 0.11819,0.16164 0.232445,0.052 0.237578,-0.22789 0.0041,-0.22398 0.0104,-0.23185 0.07625,-0.0953 0.09294,0.19271 0.25645,0.18817 0.580075,-0.0161 0.286311,-0.18074 0.310626,-0.2404 0.620188,-1.52176 l 0.159798,-0.66146 0.0081,0.62838 c 0.0099,0.76795 0.04711,0.92605 0.217876,0.92605 0.184357,0 1.164823,-0.54222 1.196089,-0.66146 0.04435,-0.16913 -0.01013,-0.23898 -0.51806,-0.66428 -0.433255,-0.36277 -0.492725,-0.43939 -0.492725,-0.63482 0,-0.12224 0.01437,-0.22226 0.03192,-0.22226 0.01757,0 0.426834,0.22422 0.909505,0.49825 0.971169,0.55139 1.164042,0.59177 1.253434,0.26243 0.02962,-0.10914 0.101754,-0.76398 0.16029,-1.45521 0.05854,-0.69122 0.117187,-1.29398 0.130334,-1.33945 0.01315,-0.0455 0.0853,-0.0827 0.160348,-0.0827 0.07504,0 0.149151,0.0372 0.164685,0.0827 0.01553,0.0455 0.06038,0.53714 0.09967,1.09258 0.03929,0.55544 0.08723,1.05108 0.106551,1.10142 0.05907,0.15394 0.284665,0.17302 0.360926,0.0305 0.03775,-0.0705 0.08668,-0.59021 0.108733,-1.15482 0.03819,-0.97802 0.04635,-1.02564 0.172394,-1.0068 0.102918,0.0154 0.171898,0.14467 0.31056,0.58202 0.221525,0.69871 0.319823,0.90794 0.450049,0.95791 0.183292,0.0703 0.287549,-0.13765 0.393263,-0.78452 0.101695,-0.62228 0.107985,-0.63641 0.283237,-0.63641 0.41021,0 0.592642,0.0752 0.592642,0.24413 0,0.18635 0.109154,0.41733 0.197221,0.41733 0.03315,0 0.242213,-0.10663 0.464579,-0.23696 0.322146,-0.1888 0.400156,-0.26609 0.383884,-0.38034 -0.01638,-0.11492 -0.08605,-0.15569 -0.351152,-0.20541 -0.34557,-0.0648 -0.427249,-0.12544 -0.428937,-0.31831 -7.94e-4,-0.10528 0.09132,-0.11575 1.019942,-0.11575 0.561525,0 1.101386,-0.0306 1.199692,-0.068 0.171101,-0.065 0.177154,-0.0833 0.141695,-0.42687 -0.02133,-0.20665 -0.670579,-2.25629 -1.530421,-4.83144 -0.82136,-2.45988 -1.491856,-4.50765 -1.489999,-4.5506 0.0053,-0.12139 0.578789,1.03505 1.765536,3.55994 1.430292,3.04305 2.358109,4.91433 2.558126,5.15938 l 0.161973,0.19843 0.437795,-0.23151 c 0.603295,-0.31903 0.695587,-0.41584 0.695587,-0.72966 0,-0.14382 -0.10668,-0.87936 -0.237064,-1.63453 -0.541761,-3.13784 -0.622599,-3.62462 -0.617799,-3.72019 0.0058,-0.11641 0.350305,0.59884 0.987023,2.04949 0.967591,2.20448 1.207378,2.64583 1.437476,2.64583 0.264564,0 1.033049,-0.30434 1.125757,-0.44583 0.120663,-0.18415 0.105341,-0.2099 -0.621179,-1.04365 -0.759962,-0.87213 -1.03864,-1.22179 -1.002543,-1.25789 0.01762,-0.0176 0.475745,0.31062 1.018069,0.7294 0.542322,0.41878 1.088216,0.80999 1.213094,0.86936 0.218424,0.10385 0.231428,0.10255 0.342103,-0.0341 0.0684,-0.0845 0.133776,-0.32274 0.161235,-0.58761 0.06569,-0.63371 0.109535,-0.67996 0.313946,-0.33116 0.09445,0.16118 0.219361,0.33257 0.277569,0.38088 0.222311,0.1845 0.263205,-0.0151 0.33174,-1.61938 l 0.06615,-1.54836 0.692991,0.86368 c 0.761003,0.94844 0.951384,1.12984 1.155214,1.10068 0.276386,-0.0395 0.244422,-0.28427 -0.628875,-4.81505 -0.645547,-3.34918 -0.614233,-3.16974 -0.529744,-3.03574 0.07028,0.11146 0.880274,2.88805 1.628497,5.58235 0.242473,0.87313 0.468546,1.63959 0.502386,1.70326 0.10699,0.20128 0.36081,0.13233 0.771723,-0.20963 0.215046,-0.17896 0.663075,-0.46204 0.995622,-0.62905 0.501769,-0.252 0.604634,-0.32984 0.604634,-0.45753 0,-0.25203 -0.81769,-1.47274 -3.462798,-5.16955 -0.650377,-0.90896 -0.73129,-1.05599 -0.964697,-1.75286 -0.140126,-0.41837 -0.247835,-0.76831 -0.239353,-0.77763 0.0085,-0.009 1.039667,1.12164 2.291525,2.51325 2.951413,3.2809 4.078726,4.43654 4.29764,4.40564 0.159933,-0.0226 0.1612,-0.0286 0.15217,-0.7173 -0.0061,-0.463 -0.153938,-1.69784 -0.443566,-3.70417 -0.45043,-3.12026 -0.554649,-3.96331 -0.481677,-3.89635 0.02357,0.0216 0.533612,1.5179 1.133425,3.32506 1.044723,3.14761 1.38712,4.07323 1.542179,4.16906 0.100635,0.0622 0.943512,-0.0815 1.108226,-0.18899 0.09484,-0.0619 0.207058,-0.31923 0.361683,-0.82949 0.241477,-0.79686 0.261813,-0.80257 0.396274,-0.11115 0.0779,0.40058 0.20519,0.53115 0.359392,0.36864 0.04787,-0.0505 0.196654,-0.49356 0.330631,-0.9847 0.472387,-1.7317 0.426627,-1.61283 0.570677,-1.48247 0.06961,0.063 0.188817,0.32559 0.264909,0.58353 0.230703,0.78209 0.521965,1.42801 0.64435,1.42896 0.06027,5.3e-4 0.326232,-0.0498 0.591027,-0.11176 0.412242,-0.0964 0.487312,-0.13599 0.522271,-0.27528 0.04183,-0.16664 -0.178972,-0.41068 -1.278681,-1.41328 -0.311827,-0.28428 -0.531918,-0.67659 -0.474496,-0.84576 0.01201,-0.0354 0.438576,0.20698 0.947899,0.53865 1.254546,0.81697 2.412617,1.51127 2.520747,1.51127 0.166131,0 0.289869,-0.30532 0.387604,-0.95638 0.05362,-0.35715 0.110415,-0.6623 0.126224,-0.67811 0.01582,-0.0158 0.253884,0.0999 0.529051,0.25717 0.393734,0.22501 0.50778,0.32466 0.535397,0.46781 0.01929,0.10005 0.05194,0.2694 0.07254,0.37633 0.0209,0.10856 0.08664,0.20438 0.148828,0.21695 0.196387,0.0397 0.967725,-0.0876 1.018972,-0.16819 0.100171,-0.1575 0.04135,-0.22569 -0.43882,-0.50876 -0.432191,-0.25479 -0.493374,-0.31501 -0.515884,-0.50784 -0.01405,-0.12033 -0.01617,-0.21877 -0.0047,-0.21877 0.01146,0 0.370096,0.17345 0.797004,0.38545 0.426908,0.212 1.007573,0.48558 1.29037,0.60794 0.786461,0.34032 0.760061,0.45597 0.484474,-2.12236 -0.269471,-2.52112 -0.334447,-3.33908 -0.233461,-2.939 0.03673,0.14552 0.277183,1.36591 0.534334,2.71198 0.257154,1.34606 0.500571,2.48798 0.54093,2.53759 0.05129,0.063 0.16365,0.0793 0.373235,0.054 0.523033,-0.0631 0.780708,-0.19787 1.320059,-0.69054 0.289118,-0.26409 0.539578,-0.45756 0.556577,-0.42994 0.01701,0.0276 0.05252,0.19904 0.07892,0.38094 0.07549,0.51999 0.09022,0.58176 0.154022,0.64556 0.07064,0.0706 0.0886,0.051 0.577127,-0.62978 0.202616,-0.28236 0.393587,-0.49781 0.424384,-0.47878 0.03079,0.019 0.106998,0.19053 0.169336,0.3811 0.183073,0.55964 0.347985,0.84258 0.491101,0.84258 0.191095,0 0.26057,-0.18586 0.440764,-1.17913 0.08995,-0.4958 0.172998,-0.91091 0.18456,-0.92247 0.01156,-0.0116 0.08616,0.22588 0.165767,0.52766 0.301847,1.14419 0.47176,1.63815 0.58411,1.69811 0.211601,0.11294 0.867476,0.16264 0.974461,0.0738 0.121359,-0.10072 0.12928,-0.70096 0.02769,-2.09837 -0.12573,-1.72951 -0.08005,-1.76436 0.325845,-0.24859 0.447612,1.67156 0.714248,2.51043 0.827929,2.60477 0.04904,0.0407 0.25898,0.10811 0.466524,0.14979 0.310182,0.0623 0.393822,0.0593 0.469866,-0.0169 0.132866,-0.13307 0.374909,-1.42272 1.227791,-6.54188 0.415192,-2.49204 0.763685,-4.44139 0.774435,-4.33189 0.01074,0.1095 -0.159795,2.0145 -0.378986,4.23333 -0.441029,4.46447 -0.598729,6.20882 -0.599295,6.62894 -5.29e-4,0.34052 0.153834,0.46641 0.642565,0.52429 0.270742,0.0321 0.336528,0.0192 0.371816,-0.0728 0.05877,-0.15317 0.218818,-1.40778 0.314888,-2.46845 0.04371,-0.48259 0.08881,-0.86809 0.100225,-0.85668 0.0114,0.0114 0.08383,0.68903 0.160935,1.50582 0.0771,0.81678 0.174869,1.66016 0.217265,1.87416 l 0.07709,0.3891 0.628385,0.21996 c 0.345612,0.12097 0.67981,0.20453 0.742664,0.18568 0.178591,-0.0536 0.207608,-0.19221 0.946791,-4.5242 0.301072,-1.76444 0.550127,-3.17191 0.553452,-3.1277 0.0033,0.0442 -0.111955,1.36878 -0.256185,2.94349 -0.335746,3.66573 -0.41996,4.78893 -0.373068,4.97576 0.02537,0.10106 0.131313,0.18629 0.32222,0.2592 0.455036,0.17377 0.388213,0.20586 1.529144,-0.73429 0.32322,-0.26634 0.60266,-0.46927 0.620974,-0.45096 0.01831,0.0183 -0.0034,0.1643 -0.0482,0.32441 -0.05933,0.21191 -0.194606,0.4032 -0.497266,0.70317 -0.30235,0.29966 -0.406617,0.44704 -0.382238,0.54026 0.03995,0.15277 0.34082,0.32134 0.573527,0.32134 0.150929,0 0.182694,-0.0519 0.339389,-0.55447 0.131188,-0.42076 0.229129,-0.60819 0.406143,-0.77721 l 0.23327,-0.22274 -0.0411,0.19843 c -0.114525,0.55291 -0.237575,1.34673 -0.237654,1.53316 -6.6e-5,0.19778 0.03613,0.22937 0.611759,0.53351 0.490844,0.25935 0.635436,0.30934 0.731128,0.25279 0.09232,-0.0546 0.11081,-0.12284 0.08181,-0.30201 -0.02951,-0.18232 0.0098,-0.13215 0.185256,0.2361 0.185698,0.38987 0.27413,0.49774 0.531887,0.6488 0.472172,0.27671 0.608308,0.16902 0.648321,-0.51283 0.0067,-0.11369 0.029,0.0314 0.04961,0.32246 0.03306,0.4668 0.05502,0.53687 0.186309,0.59446 0.08185,0.0359 0.148828,0.0967 0.148828,0.13509 0,0.0872 0.760883,0.53499 1.015823,0.59779 0.130397,0.0321 0.206994,0.0181 0.247033,-0.0451 0.0433,-0.0684 0.05829,-0.0539 0.05905,0.0572 0.0011,0.16489 0.06613,0.18954 0.185394,0.0703 0.06063,-0.0606 0.08746,-0.034 0.11762,0.11683 0.02363,0.1182 0.121947,0.25125 0.248875,0.33683 0.11539,0.0778 0.366554,0.25303 0.558139,0.38939 0.497549,0.35415 0.57527,0.30239 0.938808,-0.62532 0.158538,-0.40456 0.300373,-0.72344 0.315198,-0.70862 0.01482,0.0148 -0.08291,0.37887 -0.217191,0.809 -0.276641,0.88617 -0.292066,1.03479 -0.126397,1.21784 0.199152,0.22007 0.371348,0.15771 0.823044,-0.29804 0.233384,-0.23547 0.435036,-0.41743 0.44812,-0.40435 0.01307,0.0131 -0.123931,0.25007 -0.304483,0.52665 -0.206449,0.31624 -0.316058,0.54954 -0.295367,0.62866 0.048,0.18357 0.846196,0.80166 1.03524,0.80166 0.157515,0 0.512797,-0.39535 1.632633,-1.81674 0.304461,-0.38645 0.366374,-0.43733 0.383955,-0.31554 0.01405,0.0973 -0.193759,0.45667 -0.629787,1.08913 -0.848802,1.23122 -0.938742,1.38489 -0.888384,1.51786 0.04119,0.10875 1.316778,1.24508 1.397667,1.24508 0.02265,0 0.09203,-0.0372 0.154186,-0.0827 0.09761,-0.0714 0.12315,-0.30786 0.187558,-1.73633 0.05884,-1.30478 0.09704,-1.691 0.181112,-1.83074 0.09911,-0.16473 0.104862,-0.0272 0.08231,1.97001 l -0.02424,2.1471 0.16768,0.25339 c 0.235386,0.35569 0.401624,0.38215 0.618067,0.0984 0.205441,-0.26935 0.273592,-0.25251 0.126806,0.0313 -0.05725,0.11071 -0.103126,0.25487 -0.101949,0.32034 0.0013,0.0655 0.253847,0.35184 0.561486,0.63637 0.412808,0.3818 0.598527,0.51177 0.708924,0.49609 l 0.149582,-0.0212 v -1.5344 c 0,-2.12651 0.100608,-2.14017 0.256506,-0.0348 0.0666,0.89945 0.147016,1.79667 0.178694,1.99383 0.06975,0.43405 0.328123,0.74975 0.588704,0.71933 0.209616,-0.0245 0.233402,-0.16842 0.301373,-1.8235 0.0273,-0.6648 0.06198,-1.19638 0.07706,-1.1813 0.01508,0.0151 0.05481,0.60366 0.08827,1.30794 0.113287,2.38428 0.109053,2.35518 0.384762,2.64636 0.179957,0.19005 0.276768,0.24506 0.380836,0.21642 0.162613,-0.0448 0.186809,-0.18739 0.45366,-2.67367 0.324956,-3.02767 0.350137,-3.22781 0.357884,-2.84427 0.004,0.20009 -0.02143,0.91447 -0.05658,1.5875 -0.129275,2.47443 -0.201038,4.55048 -0.160901,4.65507 0.02268,0.0591 0.108506,0.10743 0.190738,0.10743 0.170114,0 0.575694,-0.40944 2.145912,-2.16635 0.560855,-0.62753 1.030808,-1.1299 1.044342,-1.11636 0.01355,0.0135 -0.42758,0.67583 -0.980247,1.47176 -1.574491,2.2675 -1.731838,2.55056 -1.473036,2.64987 0.141189,0.0542 0.58633,-0.16906 2.162461,-1.08447 0.720624,-0.41854 1.320998,-0.75022 1.334153,-0.73706 0.01315,0.0131 -0.455419,0.41054 -1.041286,0.88307 -1.302332,1.0504 -1.768462,1.47184 -1.768462,1.59891 0,0.17723 0.418933,0.61483 0.589828,0.61611 0.08793,7.9e-4 0.589711,-0.22381 1.115055,-0.49882 0.525348,-0.275 0.971536,-0.48364 0.991526,-0.46365 0.08785,0.0879 -0.130342,0.33452 -0.77818,0.87975 -0.42395,0.3568 -0.702654,0.64077 -0.715388,0.72892 -0.01495,0.10346 0.144158,0.33254 0.561189,0.80803 0.565203,0.64443 0.727022,0.75292 0.866537,0.58094 0.03689,-0.0455 0.130916,-0.63334 0.208933,-1.30638 0.119949,-1.03466 0.162878,-1.24413 0.2779,-1.35599 l 0.136036,-0.13229 -0.04288,0.72761 c -0.154789,2.62671 -0.159795,2.90573 -0.05503,3.06923 0.05597,0.0874 0.345921,0.45942 0.64434,0.82682 2.990286,3.68156 4.270639,5.99863 4.53413,8.20549 0.322514,2.70117 -1.222534,4.98782 -4.379865,6.48211 -0.703329,0.33287 -1.939528,0.77375 -2.119379,0.75586 -0.04504,-0.005 -8.907396,-0.25453 -19.694128,-0.55568 z m 16.503385,-2.21075 c 2.225628,-0.58399 3.969483,-2.42083 4.430599,-4.66683 0.123296,-0.60056 0.141526,-1.79393 0.03587,-2.34817 -0.519324,-2.72421 -2.778186,-4.73902 -5.595434,-4.99092 -0.98773,-0.0883 -2.321375,0.19706 -3.258093,0.69717 -1.488559,0.79475 -2.521611,2.06888 -3.029699,3.73673 -0.163208,0.53575 -0.179855,0.68755 -0.180829,1.64842 -0.0013,1.2462 0.107249,1.74825 0.586192,2.71198 0.895046,1.80101 2.593346,3.03473 4.630142,3.36352 0.460711,0.0744 1.858836,-0.0148 2.38125,-0.1519 z"
       id="path923"
       inkscape:connector-curvature="0" />
    <path
       style="opacity:1;fill:#a05a2c;fill-opacity:1;stroke:none;stroke-width:0.61624998;stroke-linejoin:bevel;stroke-miterlimit:4;stroke-dasharray:none;stroke-opacity:1;paint-order:stroke fill markers"
       d="m 19.00307,260.69398 c 0.02008,-0.17281 0.163904,-1.45168 0.319598,-2.84195 0.155697,-1.39027 0.294907,-2.51594 0.309359,-2.50149 0.01445,0.0145 0.0043,1.29333 -0.02252,2.84195 l -0.04879,2.81568 H 19.26363 18.966542 Z"
       id="path925"
       inkscape:connector-curvature="0" />
    <path
       style="opacity:1;fill:#a05a2c;fill-opacity:1;stroke:none;stroke-width:0.61624998;stroke-linejoin:bevel;stroke-miterlimit:4;stroke-dasharray:none;stroke-opacity:1;paint-order:stroke fill markers"
       d="m 27.702824,253.78116 c -1.934202,-3.35073 -4.552659,-8.20623 -4.470001,-8.28889 0.05331,-0.0533 1.389994,1.66761 4.85924,6.25608 l 0.674709,0.89238 -0.109432,1.24023 c -0.06019,0.68213 -0.12568,1.23997 -0.145542,1.23966 -0.01987,-2.7e-4 -0.3839,-0.60308 -0.808974,-1.33946 z"
       id="path927"
       inkscape:connector-curvature="0" />
    <path
       style="opacity:1;fill:#a05a2c;fill-opacity:1;stroke:none;stroke-width:0.61624998;stroke-linejoin:bevel;stroke-miterlimit:4;stroke-dasharray:none;stroke-opacity:1;paint-order:stroke fill markers"
       d="m 29.012617,256.01057 -0.190672,-0.30259 0.108408,-1.23597 c 0.05962,-0.67978 0.10822,-1.29208 0.10799,-1.36065 -2.65e-4,-0.10752 0.01778,-0.10154 0.131876,0.0435 0.121134,0.154 0.131686,0.26213 0.125111,1.28223 -0.0039,0.61272 -0.02627,1.2855 -0.04961,1.49505 l -0.04243,0.38101 z"
       id="path929"
       inkscape:connector-curvature="0" />
    <path
       style="opacity:1;fill:#a05a2c;fill-opacity:1;stroke:none;stroke-width:0.61624998;stroke-linejoin:bevel;stroke-miterlimit:4;stroke-dasharray:none;stroke-opacity:1;paint-order:stroke fill markers"
       d="m 28.752825,245.03498 c -0.502414,-0.71773 -0.900115,-1.31833 -0.883777,-1.33466 0.01635,-0.0164 0.490305,0.47052 1.053256,1.08191 0.92837,1.00825 1.012513,1.11936 0.904841,1.19489 -0.06529,0.0458 -0.128188,0.14616 -0.139772,0.22304 -0.0155,0.10296 -0.261662,-0.20393 -0.934548,-1.16518 z"
       id="path935"
       inkscape:connector-curvature="0" />
    <path
       style="opacity:1;fill:#a05a2c;fill-opacity:1;stroke:none;stroke-width:0.03851562;stroke-linejoin:bevel;stroke-miterlimit:4;stroke-dasharray:none;stroke-opacity:1;paint-order:stroke fill markers"
       d="m 29.210861,252.7244 c -0.07339,-0.0957 -0.134416,-0.17661 -0.135609,-0.17972 -0.0013,-0.003 0.0054,-0.092 0.01468,-0.19744 0.04674,-0.53183 0.12904,-1.44134 0.14268,-1.57672 0.0034,-0.0341 0.0062,-0.0643 0.0062,-0.0672 8e-6,-0.004 0.01532,-0.005 0.06268,-0.005 h 0.06267 l -0.0026,0.57568 c -0.0026,0.57818 -0.0093,1.27105 -0.01453,1.50115 l -0.0028,0.12346 z"
       id="path937"
       inkscape:connector-curvature="0" />
    <path
       style="opacity:1;fill:#a05a2c;fill-opacity:1;stroke:none;stroke-width:0.03851562;stroke-linejoin:bevel;stroke-miterlimit:4;stroke-dasharray:none;stroke-opacity:1;paint-order:stroke fill markers"
       d="m 29.213629,256.38982 c -0.09357,-0.14678 -0.202761,-0.32324 -0.339595,-0.54881 l -0.08652,-0.14262 0.0045,-0.0434 c 0.02903,-0.28077 0.114366,-1.21652 0.200766,-2.20142 0.02394,-0.27285 0.04399,-0.4998 0.04456,-0.50433 7.94e-4,-0.006 0.04833,0.0533 0.151562,0.18777 l 0.150519,0.19601 -0.0028,0.21737 c -0.0027,0.21176 -0.0041,0.2973 -0.0172,1.04213 -0.0086,0.49197 -0.02595,1.39827 -0.03093,1.61851 -0.0024,0.10004 -0.0041,0.19911 -0.0041,0.22014 -1.6e-5,0.0377 -1.64e-4,0.0382 -0.01,0.0382 -0.0085,0 -0.01775,-0.0122 -0.06073,-0.0796 z m -0.0078,-0.081 c 0,-0.002 0.01024,-0.0953 0.02276,-0.20743 0.03483,-0.31228 0.04336,-0.46703 0.06076,-1.10166 0.0072,-0.26358 0.0072,-1.34232 2.9e-5,-1.4428 -0.01633,-0.22708 -0.03862,-0.30114 -0.123505,-0.41021 -0.07708,-0.099 -0.112432,-0.12797 -0.123463,-0.10107 -0.0016,0.004 -0.0045,0.0404 -0.0065,0.0813 -0.0099,0.20157 -0.04823,0.66813 -0.155043,1.88722 -0.03806,0.43442 -0.05902,0.69171 -0.05681,0.69749 0.0053,0.0139 0.375103,0.60027 0.378669,0.60046 0.0016,9e-5 0.0031,-10e-4 0.0031,-0.003 z"
       id="path939"
       inkscape:connector-curvature="0" />
    <path
       style="opacity:1;fill:#a05a2c;fill-opacity:1;stroke:none;stroke-width:0.0096289;stroke-linejoin:bevel;stroke-miterlimit:4;stroke-dasharray:none;stroke-opacity:1;paint-order:stroke fill markers"
       d="m 28.675189,253.68221 c 2.64e-4,-0.002 0.02111,-0.23658 0.04628,-0.52225 l 0.04575,-0.51942 -0.140957,-0.18648 c -0.07753,-0.10257 -0.145325,-0.19219 -0.150659,-0.19915 l -0.0097,-0.0127 h 0.02016 0.02016 l 0.01474,0.0194 c 0.03251,0.0428 0.19309,0.25336 0.23356,0.30634 l 0.04315,0.0565 -0.003,0.034 c -0.0016,0.0187 -0.01582,0.18023 -0.03148,0.359 -0.01566,0.17878 -0.0352,0.40165 -0.04343,0.49529 -0.0082,0.0936 -0.01497,0.17072 -0.01497,0.1713 0,8e-4 -0.0054,10e-4 -0.01508,10e-4 h -0.01506 z"
       id="path941"
       inkscape:connector-curvature="0" />
    <path
       style="opacity:1;fill:#a05a2c;fill-opacity:1;stroke:none;stroke-width:0.29114172;stroke-linejoin:bevel;stroke-miterlimit:4;stroke-dasharray:none;stroke-opacity:1;paint-order:stroke fill markers"
       d=""
       id="path943"
       inkscape:connector-curvature="0"
       transform="scale(0.26458333)" />
    <path
       style="opacity:1;fill:#a05a2c;fill-opacity:1;stroke:none;stroke-width:0.29114172;stroke-linejoin:bevel;stroke-miterlimit:4;stroke-dasharray:none;stroke-opacity:1;paint-order:stroke fill markers"
       d=""
       id="path945"
       inkscape:connector-curvature="0"
       transform="scale(0.26458333)" />
    <path
       style="opacity:1;fill:#a05a2c;fill-opacity:1;stroke:none;stroke-width:0.07703125;stroke-linejoin:bevel;stroke-miterlimit:4;stroke-dasharray:none;stroke-opacity:1;paint-order:stroke fill markers"
       d="m 28.412733,255.06384 c -1.057548,-1.79086 -2.540688,-4.4239 -3.713057,-6.59185 -0.03687,-0.0682 -0.03688,-0.0682 -0.0164,-0.0682 0.01823,0 0.03168,0.0207 0.122018,0.1881 1.257596,2.32997 3.069815,5.54154 3.598322,6.37687 0.0872,0.13782 0.105926,0.16213 0.113827,0.14776 0.0222,-0.0404 0.09235,-0.64847 0.145587,-1.2619 0.0108,-0.12427 0.0173,-0.16743 0.02527,-0.16743 0.0059,0 0.01074,0.005 0.01074,0.0106 0,0.0203 -0.13512,1.52469 -0.142743,1.5893 -0.0013,0.0102 -0.05665,-0.0761 -0.143547,-0.22324 z"
       id="path947"
       inkscape:connector-curvature="0" />
    <path
       style="opacity:1;fill:#a05a2c;fill-opacity:1;stroke:none;stroke-width:0.07703125;stroke-linejoin:bevel;stroke-miterlimit:4;stroke-dasharray:none;stroke-opacity:1;paint-order:stroke fill markers"
       d="m 28.683793,253.85254 c 0,-0.0114 0.0019,-0.016 0.0042,-0.0103 0.0024,0.006 0.0024,0.015 0,0.0207 -0.0024,0.006 -0.0042,0.001 -0.0042,-0.0103 z"
       id="path949"
       inkscape:connector-curvature="0" />
    <path
       style="opacity:1;fill:#a05a2c;fill-opacity:1;stroke:none;stroke-width:0.07703125;stroke-linejoin:bevel;stroke-miterlimit:4;stroke-dasharray:none;stroke-opacity:1;paint-order:stroke fill markers"
       d="m 29.571404,255.67569 c 0.01476,-1.04258 0.03068,-1.91668 0.03547,-1.94898 l 0.0058,-0.039 0.148828,0.19143 c 0.226433,0.29125 0.696381,0.87799 0.876978,1.09494 0.226623,0.27223 0.376846,0.44246 0.515181,0.58379 0.06565,0.0671 0.115927,0.12196 0.11172,0.12196 -0.01252,0 -0.160512,-0.13847 -0.243036,-0.22738 -0.177551,-0.19129 -0.334505,-0.38096 -0.949047,-1.14686 -0.300895,-0.375 -0.404127,-0.49837 -0.408207,-0.48782 -0.003,0.008 -0.02109,0.38804 -0.04017,0.84507 -0.01908,0.45702 -0.03965,0.92211 -0.04569,1.03353 l -0.01098,0.20257 z"
       id="path951"
       inkscape:connector-curvature="0" />
    <path
       style="opacity:1;fill:#a05a2c;fill-opacity:1;stroke:none;stroke-width:0.43575454;stroke-linejoin:bevel;stroke-miterlimit:4;stroke-dasharray:none;stroke-opacity:1;paint-order:stroke fill markers"
       d="m 40.16839,244.78233 -0.472012,-0.2381 -0.219646,-1.40789 c -0.291886,-1.87096 -0.550421,-3.76529 -0.533657,-3.91021 0.01633,-0.14117 0.439034,1.20507 1.182211,3.76516 0.29871,1.02899 0.554011,1.90772 0.567341,1.95274 0.0339,0.11448 0.0066,0.10606 -0.524237,-0.1617 z"
       id="path953"
       inkscape:connector-curvature="0" />
    <path
       style="opacity:1;fill:#a05a2c;fill-opacity:1;stroke:none;stroke-width:0.43575454;stroke-linejoin:bevel;stroke-miterlimit:4;stroke-dasharray:none;stroke-opacity:1;paint-order:stroke fill markers"
       d="m 40.550964,247.00622 c -0.254987,-0.16286 -0.471673,-0.30418 -0.481523,-0.31403 -0.033,-0.033 -0.233503,-1.29217 -0.205264,-1.28908 0.01532,0.002 0.279649,0.14375 0.58738,0.31571 l 0.559509,0.31266 0.102897,0.35937 c 0.100076,0.3495 0.100703,0.36646 0.02283,0.61814 -0.04404,0.14233 -0.08955,0.26657 -0.101142,0.27607 -0.01159,0.01 -0.229698,-0.11597 -0.484685,-0.27884 z"
       id="path955"
       inkscape:connector-curvature="0" />
    <path
       style="opacity:1;fill:#a05a2c;fill-opacity:1;stroke:none;stroke-width:0.43575454;stroke-linejoin:bevel;stroke-miterlimit:4;stroke-dasharray:none;stroke-opacity:1;paint-order:stroke fill markers"
       d="m 40.546855,246.97397 -0.46772,-0.29663 -0.101433,-0.60347 c -0.05579,-0.33191 -0.09456,-0.61034 -0.08616,-0.61874 0.0084,-0.008 0.258704,0.11785 0.556234,0.28054 l 0.540962,0.29581 0.0804,0.25725 c 0.09608,0.30743 0.100164,0.62221 0.01077,0.83003 l -0.06532,0.15184 z"
       id="path957"
       inkscape:connector-curvature="0" />
    <path
       style="opacity:1;fill:#a05a2c;fill-opacity:1;stroke:none;stroke-width:0.43575454;stroke-linejoin:bevel;stroke-miterlimit:4;stroke-dasharray:none;stroke-opacity:1;paint-order:stroke fill markers"
       d="m 40.458428,249.00152 c -0.04467,-0.18727 -0.215593,-1.17928 -0.215593,-1.25126 0,-0.0376 0.109829,0.0282 0.257249,0.15417 0.141486,0.12088 0.255995,0.25405 0.254466,0.29595 -0.0016,0.0419 -0.06251,0.26559 -0.135506,0.49712 -0.106429,0.33754 -0.138253,0.39778 -0.160616,0.30402 z"
       id="path959"
       inkscape:connector-curvature="0" />
    <path
       style="opacity:1;fill:#a05a2c;fill-opacity:1;stroke:none;stroke-width:1.64694631;stroke-linejoin:bevel;stroke-miterlimit:4;stroke-dasharray:none;stroke-opacity:1;paint-order:stroke fill markers"
       d=""
       id="path961"
       inkscape:connector-curvature="0"
       transform="scale(0.26458333)" />
    <path
       style="opacity:1;fill:#a05a2c;fill-opacity:1;stroke:none;stroke-width:0.43575454;stroke-linejoin:bevel;stroke-miterlimit:4;stroke-dasharray:none;stroke-opacity:1;paint-order:stroke fill markers"
       d="m 40.523468,247.50234 c -0.192934,-0.17695 -0.335571,-0.32245 -0.31697,-0.32333 0.05143,-0.002 0.738393,0.42884 0.734634,0.46121 -0.02246,0.19329 -0.07577,0.17569 -0.417664,-0.13788 z"
       id="path963"
       inkscape:connector-curvature="0" />
    <path
       style="opacity:1;fill:#a05a2c;fill-opacity:1;stroke:none;stroke-width:0.43575454;stroke-linejoin:bevel;stroke-miterlimit:4;stroke-dasharray:none;stroke-opacity:1;paint-order:stroke fill markers"
       d="m 41.312033,248.20807 c -0.132787,-0.10946 -0.16342,-0.16361 -0.145521,-0.25725 0.02759,-0.14432 0.05342,-0.14607 0.27002,-0.0183 0.133117,0.0785 0.164314,0.12172 0.143629,0.19878 -0.01452,0.0541 -0.02671,0.12475 -0.02706,0.15691 -0.0011,0.0898 -0.05772,0.071 -0.241064,-0.0802 z"
       id="path965"
       inkscape:connector-curvature="0" />
    <path
       style="opacity:1;fill:#a05a2c;fill-opacity:1;stroke:none;stroke-width:0.43575454;stroke-linejoin:bevel;stroke-miterlimit:4;stroke-dasharray:none;stroke-opacity:1;paint-order:stroke fill markers"
       d="m 40.766882,250.66193 c -0.184173,-0.86131 -0.185687,-0.7995 0.03747,-1.53137 0.111842,-0.36681 0.215421,-0.68136 0.230174,-0.69901 0.01476,-0.0176 0.106873,0.0415 0.204711,0.13153 l 0.177887,0.16363 -0.300117,1.08454 -0.300117,1.08454 z"
       id="path967"
       inkscape:connector-curvature="0" />
    <path
       style="opacity:1;fill:#a05a2c;fill-opacity:1;stroke:none;stroke-width:0.43575454;stroke-linejoin:bevel;stroke-miterlimit:4;stroke-dasharray:none;stroke-opacity:1;paint-order:stroke fill markers"
       d="m 41.646921,247.13386 c -0.09378,-0.32937 -0.100872,-0.40544 -0.05275,-0.56604 l 0.05559,-0.18553 0.185214,0.0945 c 0.101867,0.052 0.184427,0.0993 0.18347,0.10523 -0.0011,0.006 -0.06057,0.2181 -0.132459,0.47155 l -0.130712,0.46081 z"
       id="path969"
       inkscape:connector-curvature="0" />
    <path
       style="opacity:1;fill:#a05a2c;fill-opacity:1;stroke:none;stroke-width:0.43575454;stroke-linejoin:bevel;stroke-miterlimit:4;stroke-dasharray:none;stroke-opacity:1;paint-order:stroke fill markers"
       d="m 41.334305,247.47828 c -0.01548,-0.0403 -0.007,-0.0944 0.01879,-0.12021 0.03135,-0.0314 0.05452,-0.007 0.06988,0.0733 0.02492,0.13039 -0.04286,0.16625 -0.08866,0.0469 z"
       id="path971"
       inkscape:connector-curvature="0" />
    <path
       style="opacity:1;fill:#a05a2c;fill-opacity:1;stroke:none;stroke-width:0.43575454;stroke-linejoin:bevel;stroke-miterlimit:4;stroke-dasharray:none;stroke-opacity:1;paint-order:stroke fill markers"
       d="m 42.058827,245.72381 -0.171826,-0.0885 0.117758,-0.38659 c 0.332804,-1.09254 2.050979,-6.55207 2.233946,-7.09839 0.116308,-0.34728 0.200152,-0.55076 0.186322,-0.45219 -0.01384,0.0986 -0.489384,1.8771 -1.056785,3.95225 -0.567402,2.07516 -1.055479,3.8605 -1.084615,3.96743 l -0.05297,0.19442 z"
       id="path973"
       inkscape:connector-curvature="0" />
    <path
       style="opacity:1;fill:#a05a2c;fill-opacity:1;stroke:none;stroke-width:0.43575454;stroke-linejoin:bevel;stroke-miterlimit:4;stroke-dasharray:none;stroke-opacity:1;paint-order:stroke fill markers"
       d="m 40.302208,245.28757 c -0.288904,-0.15679 -0.525687,-0.30104 -0.526185,-0.32055 -7.94e-4,-0.0282 1.004668,0.44781 1.06803,0.50562 0.0091,0.008 0.0091,0.0342 0,0.0576 -0.0091,0.0233 -0.252941,-0.0858 -0.541845,-0.24264 z"
       id="path975"
       inkscape:connector-curvature="0" />
    <path
       style="opacity:1;fill:#a05a2c;fill-opacity:1;stroke:none;stroke-width:0.43575454;stroke-linejoin:bevel;stroke-miterlimit:4;stroke-dasharray:none;stroke-opacity:1;paint-order:stroke fill markers"
       d="m 41.891555,246.16032 c -0.155364,-0.0773 -0.185695,-0.12588 -0.10845,-0.17362 0.07278,-0.045 0.371972,0.12141 0.34495,0.19183 -0.02988,0.0779 -0.04598,0.0766 -0.2365,-0.0182 z"
       id="path977"
       inkscape:connector-curvature="0" />
    <path
       style="opacity:1;fill:#a05a2c;fill-opacity:1;stroke:none;stroke-width:0.43575454;stroke-linejoin:bevel;stroke-miterlimit:4;stroke-dasharray:none;stroke-opacity:1;paint-order:stroke fill markers"
       d="m 44.054769,247.34577 c -0.982733,-0.54241 -1.64307,-0.93421 -1.65215,-0.98029 -0.0083,-0.0422 0.0086,-0.0768 0.03752,-0.0768 0.02895,0 0.799901,0.38119 1.713219,0.84709 1.573104,0.80247 1.659821,0.8534 1.646277,0.96692 -0.0079,0.0659 -0.03535,0.12584 -0.06107,0.1332 -0.02572,0.007 -0.783434,-0.39322 -1.683798,-0.89017 z"
       id="path979"
       inkscape:connector-curvature="0" />
    <path
       style="opacity:1;fill:#a05a2c;fill-opacity:1;stroke:none;stroke-width:0.43575454;stroke-linejoin:bevel;stroke-miterlimit:4;stroke-dasharray:none;stroke-opacity:1;paint-order:stroke fill markers"
       d="m 41.311776,245.82478 c -0.06056,-0.0491 -0.09704,-0.10239 -0.08107,-0.11843 0.03545,-0.0356 0.274984,0.0684 0.274984,0.11941 0,0.0831 -0.09078,0.0826 -0.19391,-0.001 z"
       id="path981"
       inkscape:connector-curvature="0" />
    <path
       style="opacity:1;fill:#a05a2c;fill-opacity:1;stroke:none;stroke-width:0.43575454;stroke-linejoin:bevel;stroke-miterlimit:4;stroke-dasharray:none;stroke-opacity:1;paint-order:stroke fill markers"
       d="m 41.318597,245.79762 c -0.0632,-0.0761 -0.04809,-0.0857 0.06633,-0.0418 0.04069,0.0156 0.07398,0.0472 0.07398,0.0702 0,0.0647 -0.07579,0.0494 -0.140316,-0.0284 z"
       id="path983"
       inkscape:connector-curvature="0" />
    <path
       style="opacity:1;fill:#a05a2c;fill-opacity:1;stroke:none;stroke-width:1.64694631;stroke-linejoin:bevel;stroke-miterlimit:4;stroke-dasharray:none;stroke-opacity:1;paint-order:stroke fill markers"
       d=""
       id="path985"
       inkscape:connector-curvature="0"
       transform="scale(0.26458333)" />
    <path
       style="opacity:1;fill:#a05a2c;fill-opacity:1;stroke:none;stroke-width:1.64694631;stroke-linejoin:bevel;stroke-miterlimit:4;stroke-dasharray:none;stroke-opacity:1;paint-order:stroke fill markers"
       d=""
       id="path987"
       inkscape:connector-curvature="0"
       transform="scale(0.26458333)" />
    <path
       style="opacity:1;fill:#a05a2c;fill-opacity:1;stroke:none;stroke-width:1.64694631;stroke-linejoin:bevel;stroke-miterlimit:4;stroke-dasharray:none;stroke-opacity:1;paint-order:stroke fill markers"
       d=""
       id="path989"
       inkscape:connector-curvature="0"
       transform="scale(0.26458333)" />
    <path
       style="opacity:1;fill:#a05a2c;fill-opacity:1;stroke:none;stroke-width:0.43575454;stroke-linejoin:bevel;stroke-miterlimit:4;stroke-dasharray:none;stroke-opacity:1;paint-order:stroke fill markers"
       d="m 46.568771,248.7317 c -0.475162,-0.26529 -0.479414,-0.26922 -0.479414,-0.44298 v -0.17532 l 0.491109,0.24425 0.491106,0.24424 v 0.19981 c 0,0.1099 -0.0053,0.19933 -0.01169,0.19874 -0.0064,-5.3e-4 -0.227431,-0.12152 -0.491109,-0.26874 z"
       id="path991"
       inkscape:connector-curvature="0" />
    <path
       style="opacity:1;fill:#a05a2c;fill-opacity:1;stroke:none;stroke-width:0.43575454;stroke-linejoin:bevel;stroke-miterlimit:4;stroke-dasharray:none;stroke-opacity:1;paint-order:stroke fill markers"
       d="m 46.542792,247.99174 -0.411853,-0.20992 0.02758,-0.19697 c 0.01516,-0.10834 0.100317,-0.91259 0.18922,-1.78723 0.238022,-2.34169 0.361569,-3.38914 0.397153,-3.36715 0.03733,0.0231 0.06329,0.48305 0.18665,3.30694 0.104717,2.39709 0.106434,2.46987 0.05818,2.46661 -0.01929,-0.001 -0.220411,-0.0968 -0.446929,-0.21228 z"
       id="path993"
       inkscape:connector-curvature="0" />
    <path
       style="opacity:1;fill:#a05a2c;fill-opacity:1;stroke:none;stroke-width:0.43575454;stroke-linejoin:bevel;stroke-miterlimit:4;stroke-dasharray:none;stroke-opacity:1;paint-order:stroke fill markers"
       d="m 19.522767,261.60407 c -0.03859,-0.008 -0.191182,-0.0284 -0.339098,-0.0447 -0.245427,-0.027 -0.268941,-0.0396 -0.268941,-0.14319 0,-0.11014 0.01056,-0.11357 0.350793,-0.11357 h 0.35079 v 0.16371 c 0,0.09 -0.0053,0.16126 -0.01169,0.15827 -0.0064,-0.003 -0.04327,-0.0122 -0.08185,-0.0205 z"
       id="path995"
       inkscape:connector-curvature="0" />
    <path
       style="opacity:1;fill:#a05a2c;fill-opacity:1;stroke:none;stroke-width:0.43575454;stroke-linejoin:bevel;stroke-miterlimit:4;stroke-dasharray:none;stroke-opacity:1;paint-order:stroke fill markers"
       d="m 16.496468,260.75302 c 0.01498,-0.14791 0.05369,-0.61472 0.08604,-1.03734 0.0349,-0.45591 0.07166,-0.72038 0.0904,-0.65032 0.01736,0.0649 0.04709,0.53175 0.06605,1.03734 l 0.03447,0.91926 H 16.621337 16.46925 Z"
       id="path997"
       inkscape:connector-curvature="0" />
    <path
       style="opacity:1;fill:#a05a2c;fill-opacity:1;stroke:none;stroke-width:0.43575454;stroke-linejoin:bevel;stroke-miterlimit:4;stroke-dasharray:none;stroke-opacity:1;paint-order:stroke fill markers"
       d="m 12.540437,263.04463 c -0.43176,-0.34756 -0.775184,-0.64176 -0.763167,-0.65378 0.01201,-0.012 0.386326,0.19793 0.831792,0.46655 0.75838,0.45731 0.80931,0.49679 0.800105,0.62021 -0.0054,0.0725 -0.02646,0.14691 -0.04677,0.16538 -0.02032,0.0185 -0.390197,-0.2508 -0.821957,-0.59836 z"
       id="path999"
       inkscape:connector-curvature="0" />
    <path
       style="opacity:1;fill:#a05a2c;fill-opacity:1;stroke:none;stroke-width:0.43575454;stroke-linejoin:bevel;stroke-miterlimit:4;stroke-dasharray:none;stroke-opacity:1;paint-order:stroke fill markers"
       d="m 53.2455,248.14842 c 0,-0.053 -0.418132,-1.83746 -1.098817,-4.68941 -0.879047,-3.68305 -1.059932,-4.46844 -1.041723,-4.52306 0.0088,-0.0263 0.123153,0.28605 0.254188,0.69413 0.131035,0.40809 0.758481,2.34984 1.394322,4.31502 l 1.156079,3.57305 -0.332026,0.33202 C 53.39491,248.03279 53.2455,248.167 53.2455,248.14842 Z"
       id="path1001"
       inkscape:connector-curvature="0" />
    <path
       style="opacity:1;fill:#a05a2c;fill-opacity:1;stroke:none;stroke-width:0.43575454;stroke-linejoin:bevel;stroke-miterlimit:4;stroke-dasharray:none;stroke-opacity:1;paint-order:stroke fill markers"
       d="m 53.463842,249.15823 c -0.01365,-0.0476 -0.04934,-0.21018 -0.07932,-0.36127 l -0.05451,-0.27471 0.273455,-0.27826 c 0.398645,-0.40564 0.414753,-0.40983 0.507056,-0.13193 l 0.07721,0.23245 -0.315667,0.41036 c -0.173617,0.22569 -0.330909,0.42825 -0.349538,0.45014 -0.01863,0.0219 -0.04504,7.9e-4 -0.05868,-0.0468 z"
       id="path1003"
       inkscape:connector-curvature="0" />
    <path
       style="opacity:1;fill:#a05a2c;fill-opacity:1;stroke:none;stroke-width:0.43575454;stroke-linejoin:bevel;stroke-miterlimit:4;stroke-dasharray:none;stroke-opacity:1;paint-order:stroke fill markers"
       d="m 54.376014,247.92168 c -0.115874,-0.3094 -0.152773,-0.25434 0.810877,-1.20996 0.502049,-0.49786 0.925422,-0.89259 0.940832,-0.87718 0.0209,0.0209 -1.422829,1.88525 -1.670564,2.1573 -0.02222,0.0244 -0.05699,-0.006 -0.08114,-0.0702 z"
       id="path1005"
       inkscape:connector-curvature="0" />
    <path
       style="opacity:1;fill:#a05a2c;fill-opacity:1;stroke:none;stroke-width:0.21787727;stroke-linejoin:bevel;stroke-miterlimit:4;stroke-dasharray:none;stroke-opacity:1;paint-order:stroke fill markers"
       d="m 67.715565,250.18103 c 0.006,-0.0161 0.162356,-0.57502 0.347446,-1.24209 0.185091,-0.66708 0.339505,-1.19812 0.34314,-1.18009 0.0036,0.018 -0.0875,0.52909 -0.202517,1.13571 l -0.209124,1.10295 -0.0877,0.0771 c -0.15775,0.13877 -0.215299,0.17079 -0.191246,0.10638 z"
       id="path1007"
       inkscape:connector-curvature="0" />
    <path
       style="opacity:1;fill:#a05a2c;fill-opacity:1;stroke:none;stroke-width:0.21787727;stroke-linejoin:bevel;stroke-miterlimit:4;stroke-dasharray:none;stroke-opacity:1;paint-order:stroke fill markers"
       d="m 67.382246,251.4001 c 0,-0.0317 0.05288,-0.23359 0.08501,-0.32455 0.0076,-0.0216 0.02934,0.009 0.05667,0.0805 0.02434,0.0635 0.04178,0.11617 0.03874,0.11693 -0.003,7.9e-4 -0.04489,0.0376 -0.09298,0.082 -0.05822,0.0537 -0.08744,0.0687 -0.08744,0.0452 z"
       id="path1009"
       inkscape:connector-curvature="0" />
    <path
       style="opacity:1;fill:#a05a2c;fill-opacity:1;stroke:none;stroke-width:0.21787727;stroke-linejoin:bevel;stroke-miterlimit:4;stroke-dasharray:none;stroke-opacity:1;paint-order:stroke fill markers"
       d="m 67.863396,250.54545 c -0.0082,-0.0214 -0.0041,-0.0499 0.0092,-0.0631 0.01662,-0.0166 0.02416,-0.004 0.02416,0.039 0,0.0721 -0.01169,0.0806 -0.03334,0.0242 z"
       id="path1011"
       inkscape:connector-curvature="0" />
    <path
       style="opacity:1;fill:#a05a2c;fill-opacity:1;stroke:none;stroke-width:0.21787727;stroke-linejoin:bevel;stroke-miterlimit:4;stroke-dasharray:none;stroke-opacity:1;paint-order:stroke fill markers"
       d="m 68.160994,250.65223 c 0.0076,-0.0309 0.03167,-0.15423 0.05347,-0.27417 l 0.03965,-0.21808 2.021306,-1.70762 c 1.840248,-1.55466 2.324132,-1.94971 1.884061,-1.53818 -0.08717,0.0815 -1.025597,0.96854 -2.085398,1.97118 -1.23548,1.16883 -1.921955,1.80284 -1.913091,1.76687 z"
       id="path1013"
       inkscape:connector-curvature="0" />
    <path
       style="opacity:1;fill:#a05a2c;fill-opacity:1;stroke:none;stroke-width:0.21787727;stroke-linejoin:bevel;stroke-miterlimit:4;stroke-dasharray:none;stroke-opacity:1;paint-order:stroke fill markers"
       d="m 68.76586,253.71818 c -0.0172,-0.0579 -0.147217,-0.42422 -0.288962,-0.81408 -0.141745,-0.38987 -0.253272,-0.71329 -0.247835,-0.71873 0.01117,-0.0112 0.673672,1.53436 0.672568,1.56897 -2.64e-4,0.0123 -0.01143,0.004 -0.02455,-0.0186 -0.03472,-0.0596 -0.06412,-0.0501 -0.07258,0.0234 -0.0066,0.0571 -0.01087,0.0526 -0.03864,-0.0409 z"
       id="path1015"
       inkscape:connector-curvature="0" />
    <path
       style="opacity:1;fill:#a05a2c;fill-opacity:1;stroke:none;stroke-width:0.21787727;stroke-linejoin:bevel;stroke-miterlimit:4;stroke-dasharray:none;stroke-opacity:1;paint-order:stroke fill markers"
       d="m 74.247418,255.57737 c 0.0071,-0.0514 0.01823,-0.11196 0.02484,-0.13447 0.01714,-0.0583 -0.03157,-0.0509 -0.05015,0.008 -0.0085,0.0267 -0.0205,0.0434 -0.02672,0.0372 -0.0062,-0.006 0.133872,-0.3868 0.311314,-0.84573 0.177443,-0.45892 0.325295,-0.82559 0.328557,-0.81481 0.0033,0.0108 -0.130556,0.43003 -0.297375,0.93166 -0.16682,0.50163 -0.297535,0.86996 -0.290479,0.81851 z"
       id="path1017"
       inkscape:connector-curvature="0" />
    <path
       style="opacity:1;fill:#a05a2c;fill-opacity:1;stroke:none;stroke-width:0.21787727;stroke-linejoin:bevel;stroke-miterlimit:4;stroke-dasharray:none;stroke-opacity:1;paint-order:stroke fill markers"
       d="m 78.005647,255.17981 c 0.0067,-0.15435 0.06857,-1.65924 0.137496,-3.34421 0.0798,-1.95076 0.127455,-2.93191 0.131189,-2.70109 0.0032,0.19936 -0.01349,1.64799 -0.03713,3.21916 l -0.04299,2.85668 -0.100367,0.12504 -0.100367,0.12505 z"
       id="path1019"
       inkscape:connector-curvature="0" />
    <path
       style="opacity:1;fill:#a05a2c;fill-opacity:1;stroke:none;stroke-width:0.82347316;stroke-linejoin:bevel;stroke-miterlimit:4;stroke-dasharray:none;stroke-opacity:1;paint-order:stroke fill markers"
       d=""
       id="path1021"
       inkscape:connector-curvature="0"
       transform="scale(0.26458333)" />
    <path
       style="opacity:1;fill:#a05a2c;fill-opacity:1;stroke:none;stroke-width:0.82347316;stroke-linejoin:bevel;stroke-miterlimit:4;stroke-dasharray:none;stroke-opacity:1;paint-order:stroke fill markers"
       d=""
       id="path1023"
       inkscape:connector-curvature="0"
       transform="scale(0.26458333)" />
    <path
       style="opacity:1;fill:#a05a2c;fill-opacity:1;stroke:none;stroke-width:0.21787727;stroke-linejoin:bevel;stroke-miterlimit:4;stroke-dasharray:none;stroke-opacity:1;paint-order:stroke fill markers"
       d="m 77.963904,256.13279 c 0.01513,-0.16474 0.02551,-0.19279 0.113832,-0.30813 l 0.09719,-0.1269 0.0071,0.14868 c 0.0068,0.14339 0.0032,0.15436 -0.101878,0.30814 -0.05992,0.0877 -0.114329,0.15945 -0.120904,0.15945 -0.0066,0 -0.0045,-0.0816 0.0047,-0.18124 z"
       id="path1025"
       inkscape:connector-curvature="0" />
    <path
       style="opacity:1;fill:#a05a2c;fill-opacity:1;stroke:none;stroke-width:0.21787727;stroke-linejoin:bevel;stroke-miterlimit:4;stroke-dasharray:none;stroke-opacity:1;paint-order:stroke fill markers"
       d="m 78.470015,255.50605 c 0.0016,-0.0508 0.0094,-0.12055 0.01754,-0.15498 0.01299,-0.0551 1.299334,-1.70305 1.329343,-1.70305 0.0065,0 0.0059,0.0152 -0.0011,0.0337 -0.01199,0.0312 -1.283835,1.84501 -1.328452,1.89451 -0.01143,0.0127 -0.01884,-0.0174 -0.01725,-0.0702 z"
       id="path1027"
       inkscape:connector-curvature="0" />
    <path
       style="opacity:1;fill:#a05a2c;fill-opacity:1;stroke:none;stroke-width:0.21787727;stroke-linejoin:bevel;stroke-miterlimit:4;stroke-dasharray:none;stroke-opacity:1;paint-order:stroke fill markers"
       d="m 80.199665,257.09552 c 0.0011,-0.0273 0.0067,-0.0328 0.01413,-0.0141 0.0067,0.0169 0.0059,0.0371 -0.0019,0.0448 -0.0078,0.008 -0.01331,-0.006 -0.01228,-0.0307 z"
       id="path1029"
       inkscape:connector-curvature="0" />
    <path
       style="opacity:1;fill:#a05a2c;fill-opacity:1;stroke:none;stroke-width:0.21787727;stroke-linejoin:bevel;stroke-miterlimit:4;stroke-dasharray:none;stroke-opacity:1;paint-order:stroke fill markers"
       d="m 80.258431,258.48309 c -0.02278,-0.4234 -0.112178,-3.31798 -0.102756,-3.3274 0.0047,-0.005 0.06457,0.75963 0.132982,1.69857 l 0.124392,1.70715 -0.06402,0.0924 c -0.03521,0.0508 -0.06681,0.0924 -0.07023,0.0924 -0.0034,0 -0.01257,-0.1184 -0.02037,-0.2631 z"
       id="path1031"
       inkscape:connector-curvature="0" />
    <path
       style="opacity:1;fill:#a05a2c;fill-opacity:1;stroke:none;stroke-width:0.21787727;stroke-linejoin:bevel;stroke-miterlimit:4;stroke-dasharray:none;stroke-opacity:1;paint-order:stroke fill markers"
       d="m 79.098895,261.09064 c -1.32e-4,-0.0311 -0.01458,-0.0526 -0.0353,-0.0526 -0.01929,0 -0.03508,-0.006 -0.03508,-0.0134 0,-0.0229 0.733017,-1.06205 0.742476,-1.0526 0.0049,0.005 -0.119726,0.22835 -0.276947,0.49656 -0.157221,0.2682 -0.310399,0.52973 -0.340392,0.58118 -0.04457,0.0765 -0.05458,0.0839 -0.05476,0.0409 z"
       id="path1033"
       inkscape:connector-curvature="0" />
    <path
       style="opacity:1;fill:#a05a2c;fill-opacity:1;stroke:none;stroke-width:0.82347316;stroke-linejoin:bevel;stroke-miterlimit:4;stroke-dasharray:none;stroke-opacity:1;paint-order:stroke fill markers"
       d=""
       id="path1035"
       inkscape:connector-curvature="0"
       transform="scale(0.26458333)" />
    <path
       style="opacity:1;fill:#a05a2c;fill-opacity:1;stroke:none;stroke-width:0.21787727;stroke-linejoin:bevel;stroke-miterlimit:4;stroke-dasharray:none;stroke-opacity:1;paint-order:stroke fill markers"
       d="m 80.470987,259.77158 c -0.01053,-0.0856 -0.03323,-0.17484 -0.05042,-0.19835 -0.0264,-0.0361 -0.02537,-0.0537 0.0065,-0.11334 l 0.0378,-0.0706 0.01926,0.16371 c 0.01058,0.09 0.01627,0.21105 0.01262,0.26894 -0.0063,0.0993 -0.0077,0.0965 -0.0258,-0.0504 z"
       id="path1037"
       inkscape:connector-curvature="0" />
    <path
       style="opacity:1;fill:#a05a2c;fill-opacity:1;stroke:none;stroke-width:0.21787727;stroke-linejoin:bevel;stroke-miterlimit:4;stroke-dasharray:none;stroke-opacity:1;paint-order:stroke fill markers"
       d="m 80.505343,259.73425 c -0.0019,-0.0289 -0.01146,-0.0526 -0.02117,-0.0526 -0.02593,0 -0.07352,-0.16603 -0.05868,-0.2047 0.01839,-0.0479 0.05214,0.0109 0.0526,0.0917 1.99e-4,0.0343 0.0118,0.0662 0.0258,0.0708 0.014,0.005 0.02082,0.0397 0.01519,0.078 -0.0074,0.0503 -0.01122,0.0549 -0.01373,0.0169 z"
       id="path1039"
       inkscape:connector-curvature="0" />
    <path
       style="opacity:1;fill:#a05a2c;fill-opacity:1;stroke:none;stroke-width:0.21787727;stroke-linejoin:bevel;stroke-miterlimit:4;stroke-dasharray:none;stroke-opacity:1;paint-order:stroke fill markers"
       d="m 80.436607,259.59591 c -0.01579,-0.0515 -0.0181,-0.10038 -0.0057,-0.12245 0.02127,-0.038 0.02021,-0.0406 0.05974,0.1497 0.01884,0.0907 -0.0245,0.0689 -0.05398,-0.0272 z"
       id="path1041"
       inkscape:connector-curvature="0" />
    <path
       style="opacity:1;fill:#a05a2c;fill-opacity:1;stroke:none;stroke-width:0.21787727;stroke-linejoin:bevel;stroke-miterlimit:4;stroke-dasharray:none;stroke-opacity:1;paint-order:stroke fill markers"
       d="m 80.317468,260.42998 c -0.0039,-0.1865 -0.01402,-0.43644 -0.02246,-0.55542 -0.0084,-0.11898 -0.0078,-0.21632 0.0013,-0.21632 0.0092,0 0.03155,-0.0282 0.04958,-0.0626 0.03066,-0.0585 0.032,-0.0536 0.02066,0.076 -0.0067,0.0762 -0.01887,0.35432 -0.02712,0.618 l -0.01503,0.47941 z"
       id="path1043"
       inkscape:connector-curvature="0" />
    <path
       style="opacity:1;fill:#a05a2c;fill-opacity:1;stroke:none;stroke-width:0.21787727;stroke-linejoin:bevel;stroke-miterlimit:4;stroke-dasharray:none;stroke-opacity:1;paint-order:stroke fill markers"
       d="m 81.778624,261.18927 c -0.01831,-0.32973 -0.04045,-0.42732 -0.06347,-0.27987 -0.01746,0.11186 0.0019,-0.50981 0.02349,-0.76005 0.01162,-0.13356 0.02262,0.002 0.04619,0.56884 0.01701,0.40933 0.02627,0.74893 0.02053,0.75466 -0.0057,0.006 -0.01778,-0.12188 -0.02675,-0.28358 z"
       id="path1045"
       inkscape:connector-curvature="0" />
    <path
       style="opacity:1;fill:#a05a2c;fill-opacity:1;stroke:none;stroke-width:0.21787727;stroke-linejoin:bevel;stroke-miterlimit:4;stroke-dasharray:none;stroke-opacity:1;paint-order:stroke fill markers"
       d="m 88.108042,264.09575 c 0.0065,-0.0418 0.09432,-0.87795 0.195125,-1.85811 0.100804,-0.98016 0.186989,-1.7784 0.191521,-1.77387 0.0089,0.009 -0.196604,3.313 -0.21868,3.51534 -0.01151,0.1055 -0.02302,0.12803 -0.08071,0.15786 -0.09356,0.0484 -0.100698,0.045 -0.08726,-0.0412 z"
       id="path1047"
       inkscape:connector-curvature="0" />
    <path
       style="opacity:1;fill:#a05a2c;fill-opacity:1;stroke:none;stroke-width:0.21787727;stroke-linejoin:bevel;stroke-miterlimit:4;stroke-dasharray:none;stroke-opacity:1;paint-order:stroke fill markers"
       d="m 87.876788,266.30749 c 0.0071,-0.0363 0.04126,-0.3502 0.07603,-0.69749 0.06679,-0.66728 0.06693,-0.6678 0.201989,-0.76407 l 0.06418,-0.0457 -0.0093,0.30403 c -0.0051,0.16721 -0.01431,0.31259 -0.0205,0.32306 -0.0062,0.0105 -0.01895,0.17661 -0.02838,0.36922 -0.0094,0.1926 -0.02421,0.36933 -0.03287,0.39273 -0.0087,0.0234 -0.0716,0.0745 -0.139866,0.11345 l -0.124127,0.0709 z"
       id="path1049"
       inkscape:connector-curvature="0" />
    <path
       style="opacity:1;fill:#a05a2c;fill-opacity:1;stroke:none;stroke-width:0.21787727;stroke-linejoin:bevel;stroke-miterlimit:4;stroke-dasharray:none;stroke-opacity:1;paint-order:stroke fill markers"
       d="m 87.89184,266.30616 c 0,-0.0512 0.110173,-1.07202 0.13158,-1.21916 0.01331,-0.0915 0.122913,-0.26037 0.169016,-0.26046 0.01752,-4e-5 -0.0031,0.48777 -0.04203,0.99364 -0.02916,0.37893 -0.03649,0.39801 -0.187005,0.48688 -0.06923,0.0409 -0.07156,0.0408 -0.07156,-7.9e-4 z"
       id="path1051"
       inkscape:connector-curvature="0" />
    <path
       style="opacity:1;fill:#ffd5d5;fill-opacity:1;stroke:none;stroke-width:0.21787727;stroke-linejoin:bevel;stroke-miterlimit:4;stroke-dasharray:none;stroke-opacity:1;paint-order:stroke fill markers"
       d="m 87.813603,266.90255 c 0.01955,-0.17792 0.02756,-0.1921 0.145206,-0.25771 0.06343,-0.0354 0.122267,-0.0643 0.130757,-0.0643 0.0085,0 0.0122,0.0432 0.0083,0.096 -0.0065,0.0863 -0.02172,0.10762 -0.151191,0.21094 l -0.143999,0.11492 z"
       id="path1053"
       inkscape:connector-curvature="0" />
    <ellipse
       style="fill:#000000;fill-rule:evenodd;stroke-width:0.26458332"
       id="path1057"
       cx="81.952133"
       cy="278.83551"
       rx="1.7598028"
       ry="1.7948819" />
    <path
       style="fill:none;stroke:#000000;stroke-width:0.26458332px;stroke-linecap:butt;stroke-linejoin:miter;stroke-opacity:1"
       d="m 70.98064,282.20456 c 0,0 8.10286,5.22553 18.23971,4.36563"
       id="path1061"
       inkscape:connector-curvature="0" />
    <ellipse
       style="fill:none;fill-rule:evenodd;stroke-width:0.26458332"
       id="path1063"
       cx="81.838928"
       cy="278.71066"
       rx="6.3665361"
       ry="6.1184897" />
    <g
       sodipodi:type="inkscape:box3d"
       id="g1070"
       style="opacity:1;fill:none;fill-opacity:1;stroke:none;stroke-width:9.316535;stroke-linejoin:bevel;stroke-miterlimit:4;stroke-dasharray:none;stroke-opacity:1;paint-order:stroke fill markers"
       inkscape:perspectiveID="#perspective825"
       inkscape:corner0="-0.32381779 : 0.0058319307 : 0 : 1"
       inkscape:corner7="-0.37263566 : -0.034610308 : 0.10596337 : 1">
      <path
         sodipodi:type="inkscape:box3dside"
         id="path1072"
         style="fill:#353564;fill-rule:evenodd;stroke:none;stroke-width:17.05031395;stroke-linejoin:round"
         inkscape:box3dsidetype="6"
         d="m 137.55651,181.79257 v 94.01429 L 160.3782,258.16333 V 176.8859 Z"
         points="137.55651,275.80686 160.3782,258.16333 160.3782,176.8859 137.55651,181.79257 " />
      <path
         sodipodi:type="inkscape:box3dside"
         id="path1080"
         style="fill:#afafde;fill-rule:evenodd;stroke:none;stroke-width:17.05031395;stroke-linejoin:round"
         inkscape:box3dsidetype="13"
         d="m 137.55651,275.80686 25.74649,15.21482 20.62066,-21.01655 -23.54546,-11.8418 z"
         points="163.303,291.02168 183.92366,270.00513 160.3782,258.16333 137.55651,275.80686 " />
      <path
         sodipodi:type="inkscape:box3dside"
         id="path1082"
         style="fill:#e9e9ff;fill-rule:evenodd;stroke:none;stroke-width:17.05031395;stroke-linejoin:round"
         inkscape:box3dsidetype="11"
         d="m 160.3782,176.8859 23.54546,6.43113 v 86.6881 l -23.54546,-11.8418 z"
         points="183.92366,183.31703 183.92366,270.00513 160.3782,258.16333 160.3782,176.8859 " />
      <path
         sodipodi:type="inkscape:box3dside"
         id="path1074"
         style="fill:#4d4d9f;fill-rule:evenodd;stroke:none;stroke-width:17.05031395;stroke-linejoin:round"
         inkscape:box3dsidetype="5"
         d="m 137.55651,181.79257 25.74649,7.89918 20.62066,-6.37472 -23.54546,-6.43113 z"
         points="163.303,189.69175 183.92366,183.31703 160.3782,176.8859 137.55651,181.79257 " />
      <path
         sodipodi:type="inkscape:box3dside"
         id="path1078"
         style="fill:#d7d7ff;fill-rule:evenodd;stroke:none;stroke-width:17.05031395;stroke-linejoin:round"
         inkscape:box3dsidetype="14"
         d="m 163.303,189.69175 v 101.32993 l 20.62066,-21.01655 v -86.6881 z"
         points="163.303,291.02168 183.92366,270.00513 183.92366,183.31703 163.303,189.69175 " />
      <path
         sodipodi:type="inkscape:box3dside"
         id="path1076"
         style="fill:#8686bf;fill-rule:evenodd;stroke:none;stroke-width:17.05031395;stroke-linejoin:round"
         inkscape:box3dsidetype="3"
         d="m 137.55651,181.79257 25.74649,7.89918 v 101.32993 l -25.74649,-15.21482 z"
         points="163.303,189.69175 163.303,291.02168 137.55651,275.80686 137.55651,181.79257 " />
    </g>
    <path
       style="opacity:1;fill:#000080;fill-opacity:1;stroke:none;stroke-width:1.12780714;stroke-linejoin:bevel;stroke-miterlimit:4;stroke-dasharray:none;stroke-opacity:1;paint-order:stroke fill markers"
       d="m 163.30564,240.38329 0.002,-50.67828 9.1947,-2.83514 9.19467,-2.83515 1.09229,0.002 1.09229,0.002 v 43.02146 43.02146 l -9.74136,9.92731 c -5.35777,5.46005 -9.98766,10.1806 -10.28867,10.4901 l -0.54729,0.5628 z"
       id="path1084"
       inkscape:connector-curvature="0" />
  </g>
</svg>
